<mxfile host="app.diagrams.net" modified="2022-08-24T20:10:39.073Z" agent="5.0 (Macintosh; Intel Mac OS X 10_15_7) AppleWebKit/605.1.15 (KHTML, like Gecko) Version/15.6.1 Safari/605.1.15" etag="O1KK21R6pwsZBjTAJZwi" version="20.2.7" type="github">
  <diagram id="LS5cRb8DTGBqcgNaJrOA" name="Page-1">
    <mxGraphModel dx="1440" dy="1099" grid="1" gridSize="10" guides="1" tooltips="1" connect="1" arrows="1" fold="1" page="1" pageScale="1" pageWidth="850" pageHeight="1100" math="0" shadow="0">
      <root>
        <mxCell id="0" />
        <mxCell id="1" parent="0" />
        <UserObject label="" mermaidData="{&#xa;  &quot;data&quot;: &quot;flowchart TD\n  \n  classDef active stroke-width:4px;\n\n  devices([Devices]) --OpenADR--&gt; agents  \n  agents[Agents]:::active --REST--&gt; gateway[API Gateway]\n      click agents \&quot;https://github.com/postroad-energy/design/blob/main/docs/agents.md\&quot; _blank\n\n  users([Users]) --HTTPS--&gt; user_app[User App]:::active --REST--&gt; gateway\n      click user_app \&quot;https://github.com/postroad-energy/design/blob/main/docs/users.md\&quot; _blank\n\n  controllers([Controllers]) --HTTPS--&gt; controller_app[Controller App]:::active --REST--&gt; gateway\n      click controller_app \&quot;https://github.com/postroad-energy/design/blob/main/docs/controllers.md\&quot; _blank\n\n  billing([Billing User]) --HTTPS--&gt; billing_app[Billing App]:::active --REST--&gt; gateway\n      click billing_app \&quot;https://github.com/postroad-energy/design/blob/main/docs/billing.md\&quot; _blank\n\n  operators([Operators]) --HTTPS--&gt; operator_app[Operator App]:::active --REST--&gt; gateway\n      click operator_app \&quot;https://github.com/postroad-energy/design/blob/main/docs/oeprators.md\&quot; _blank\n\n  experiment([Experimenters]) --HTTPS--&gt; experiment_app[Experiment App]:::active --REST--&gt; gateway\n      click experiment_app \&quot;https://github.com/postroad-energy/design/blob/main/docs/experimenters.md\&quot; _blank\n\n  gateway --&gt; auth[Cognito]\n  \n  gateway --&gt; s3[S3]\n    s3 --&gt; websites([Websites]):::active\n      click websites \&quot;https://github.com/postroad-energy/design/blob/main/docs/websites.md\&quot; _blank\n  \n  gateway --&gt; ec2[EC2]\n    ec2 --&gt; elb((ELB))\n    ec2 --&gt; ebs([EBS])\n    ec2 --&gt; dns((DNS))\n    ec2 --&gt; route53((Route53))\n    ec2 --&gt; vpc((VPC))\n    ec2 --&gt; sg((SG))\n  \n  gateway --&gt; lambda[Lambda]\n    lambda --&gt; sqs((SQS))\n    lambda --&gt; sns((SNS))\n    lambda --&gt; auction[Auction]:::active\n      click auction \&quot;https://github.com/postroad-energy/design/blob/main/docs/auction.md\&quot; _blank\n      auction --API--&gt; database  \n    lambda --&gt; db_api[Database]:::active\n      click db_api \&quot;https://github.com/postroad-energy/design/blob/main/docs/database.md\&quot; _blank\n      db_api --API--&gt; database[(Database)]:::active\n      click database \&quot;https://github.com/postroad-energy/design/blob/main/docs/database.md\&quot; _blank\n      \n  gateway --&gt; amplify[Amplify]\n  \n  gateway --&gt; other[Other services]\n  \n  database --&gt; simulation[Simulation]:::active --&gt; results[(Results)]:::active\n    click simulation \&quot;https://github.com/postroad-energy/design/blob/main/docs/simulation.md\&quot; _blank\n    click results \&quot;https://github.com/postroad-energy/design/blob/main/docs/results.md\&quot; _blank\n  \n  database --&gt; analysis[Analysis]:::active --&gt; results\n    click analysis \&quot;https://github.com/postroad-energy/design/blob/main/docs/analysis.md\&quot; _blank\n    &quot;,&#xa;  &quot;config&quot;: {&#xa;    &quot;theme&quot;: &quot;neutral&quot;,&#xa;    &quot;arrowMarkerAbsolute&quot;: false,&#xa;    &quot;flowchart&quot;: {&#xa;      &quot;htmlLabels&quot;: false&#xa;    },&#xa;    &quot;sequence&quot;: {&#xa;      &quot;diagramMarginX&quot;: 50,&#xa;      &quot;diagramMarginY&quot;: 10,&#xa;      &quot;actorMargin&quot;: 50,&#xa;      &quot;width&quot;: 150,&#xa;      &quot;height&quot;: 65,&#xa;      &quot;boxMargin&quot;: 10,&#xa;      &quot;boxTextMargin&quot;: 5,&#xa;      &quot;noteMargin&quot;: 10,&#xa;      &quot;messageMargin&quot;: 35,&#xa;      &quot;mirrorActors&quot;: true,&#xa;      &quot;bottomMarginAdj&quot;: 1,&#xa;      &quot;useMaxWidth&quot;: true,&#xa;      &quot;rightAngles&quot;: false,&#xa;      &quot;showSequenceNumbers&quot;: false&#xa;    },&#xa;    &quot;gantt&quot;: {&#xa;      &quot;titleTopMargin&quot;: 25,&#xa;      &quot;barHeight&quot;: 20,&#xa;      &quot;barGap&quot;: 4,&#xa;      &quot;topPadding&quot;: 50,&#xa;      &quot;leftPadding&quot;: 75,&#xa;      &quot;gridLineStartPadding&quot;: 35,&#xa;      &quot;fontSize&quot;: 11,&#xa;      &quot;fontFamily&quot;: &quot;\&quot;Open-Sans\&quot;, \&quot;sans-serif\&quot;&quot;,&#xa;      &quot;numberSectionStyles&quot;: 4,&#xa;      &quot;axisFormat&quot;: &quot;%Y-%m-%d&quot;&#xa;    }&#xa;  }&#xa;}" id="d6iQI1rrq8cJHwlEB_3N-1">
          <mxCell style="shape=image;noLabel=1;verticalAlign=top;imageAspect=1;image=data:image/svg+xml,PHN2ZyB2aWV3Qm94PSIwIDAgMTMxMy40OTIxODc1IDc4NS42ODEwMzQwODgxMzQ4IiBzdHlsZT0ibWF4LXdpZHRoOiAxMzEzLjQ5MjE4NzVweDsiIGhlaWdodD0iNzg1LjY4MTAzNDA4ODEzNDgiIGFyaWEtbGFiZWxsZWRieT0iY2hhcnQtdGl0bGUtZ2VNZXJtYWlkT3V0cHV0LTE2NjEzNzE3OTY3ODkgY2hhcnQtZGVzYy1nZU1lcm1haWRPdXRwdXQtMTY2MTM3MTc5Njc4OSIgcm9sZT0iaW1nIiB4bWxuczp4bGluaz0iaHR0cDovL3d3dy53My5vcmcvMTk5OS94bGluayIgeG1sbnM9Imh0dHA6Ly93d3cudzMub3JnLzIwMDAvc3ZnIiB3aWR0aD0iMTAwJSIgaWQ9ImdlTWVybWFpZE91dHB1dC0xNjYxMzcxNzk2Nzg5Ij48dGl0bGUgaWQ9ImNoYXJ0LXRpdGxlLWdlTWVybWFpZE91dHB1dC0xNjYxMzcxNzk2Nzg5Ij48L3RpdGxlPjxkZXNjIGlkPSJjaGFydC1kZXNjLWdlTWVybWFpZE91dHB1dC0xNjYxMzcxNzk2Nzg5Ij48L2Rlc2M+PHN0eWxlPiNnZU1lcm1haWRPdXRwdXQtMTY2MTM3MTc5Njc4OSB7Zm9udC1mYW1pbHk6InRyZWJ1Y2hldCBtcyIsdmVyZGFuYSxhcmlhbCxzYW5zLXNlcmlmO2ZvbnQtc2l6ZToxNnB4O2ZpbGw6IzAwMDAwMDt9I2dlTWVybWFpZE91dHB1dC0xNjYxMzcxNzk2Nzg5IC5lcnJvci1pY29ue2ZpbGw6IzU1MjIyMjt9I2dlTWVybWFpZE91dHB1dC0xNjYxMzcxNzk2Nzg5IC5lcnJvci10ZXh0e2ZpbGw6IzU1MjIyMjtzdHJva2U6IzU1MjIyMjt9I2dlTWVybWFpZE91dHB1dC0xNjYxMzcxNzk2Nzg5IC5lZGdlLXRoaWNrbmVzcy1ub3JtYWx7c3Ryb2tlLXdpZHRoOjJweDt9I2dlTWVybWFpZE91dHB1dC0xNjYxMzcxNzk2Nzg5IC5lZGdlLXRoaWNrbmVzcy10aGlja3tzdHJva2Utd2lkdGg6My41cHg7fSNnZU1lcm1haWRPdXRwdXQtMTY2MTM3MTc5Njc4OSAuZWRnZS1wYXR0ZXJuLXNvbGlke3N0cm9rZS1kYXNoYXJyYXk6MDt9I2dlTWVybWFpZE91dHB1dC0xNjYxMzcxNzk2Nzg5IC5lZGdlLXBhdHRlcm4tZGFzaGVke3N0cm9rZS1kYXNoYXJyYXk6Mzt9I2dlTWVybWFpZE91dHB1dC0xNjYxMzcxNzk2Nzg5IC5lZGdlLXBhdHRlcm4tZG90dGVke3N0cm9rZS1kYXNoYXJyYXk6Mjt9I2dlTWVybWFpZE91dHB1dC0xNjYxMzcxNzk2Nzg5IC5tYXJrZXJ7ZmlsbDojNjY2O3N0cm9rZTojNjY2O30jZ2VNZXJtYWlkT3V0cHV0LTE2NjEzNzE3OTY3ODkgLm1hcmtlci5jcm9zc3tzdHJva2U6IzY2Njt9I2dlTWVybWFpZE91dHB1dC0xNjYxMzcxNzk2Nzg5IHN2Z3tmb250LWZhbWlseToidHJlYnVjaGV0IG1zIix2ZXJkYW5hLGFyaWFsLHNhbnMtc2VyaWY7Zm9udC1zaXplOjE2cHg7fSNnZU1lcm1haWRPdXRwdXQtMTY2MTM3MTc5Njc4OSAubGFiZWx7Zm9udC1mYW1pbHk6InRyZWJ1Y2hldCBtcyIsdmVyZGFuYSxhcmlhbCxzYW5zLXNlcmlmO2NvbG9yOiMwMDAwMDA7fSNnZU1lcm1haWRPdXRwdXQtMTY2MTM3MTc5Njc4OSAuY2x1c3Rlci1sYWJlbCB0ZXh0e2ZpbGw6IzMzMzt9I2dlTWVybWFpZE91dHB1dC0xNjYxMzcxNzk2Nzg5IC5jbHVzdGVyLWxhYmVsIHNwYW57Y29sb3I6IzMzMzt9I2dlTWVybWFpZE91dHB1dC0xNjYxMzcxNzk2Nzg5IC5sYWJlbCB0ZXh0LCNnZU1lcm1haWRPdXRwdXQtMTY2MTM3MTc5Njc4OSBzcGFue2ZpbGw6IzAwMDAwMDtjb2xvcjojMDAwMDAwO30jZ2VNZXJtYWlkT3V0cHV0LTE2NjEzNzE3OTY3ODkgLm5vZGUgcmVjdCwjZ2VNZXJtYWlkT3V0cHV0LTE2NjEzNzE3OTY3ODkgLm5vZGUgY2lyY2xlLCNnZU1lcm1haWRPdXRwdXQtMTY2MTM3MTc5Njc4OSAubm9kZSBlbGxpcHNlLCNnZU1lcm1haWRPdXRwdXQtMTY2MTM3MTc5Njc4OSAubm9kZSBwb2x5Z29uLCNnZU1lcm1haWRPdXRwdXQtMTY2MTM3MTc5Njc4OSAubm9kZSBwYXRoe2ZpbGw6I2VlZTtzdHJva2U6Izk5OTtzdHJva2Utd2lkdGg6MXB4O30jZ2VNZXJtYWlkT3V0cHV0LTE2NjEzNzE3OTY3ODkgLm5vZGUgLmxhYmVse3RleHQtYWxpZ246Y2VudGVyO30jZ2VNZXJtYWlkT3V0cHV0LTE2NjEzNzE3OTY3ODkgLm5vZGUuY2xpY2thYmxle2N1cnNvcjpwb2ludGVyO30jZ2VNZXJtYWlkT3V0cHV0LTE2NjEzNzE3OTY3ODkgLmFycm93aGVhZFBhdGh7ZmlsbDojMzMzMzMzO30jZ2VNZXJtYWlkT3V0cHV0LTE2NjEzNzE3OTY3ODkgLmVkZ2VQYXRoIC5wYXRoe3N0cm9rZTojNjY2O3N0cm9rZS13aWR0aDoyLjBweDt9I2dlTWVybWFpZE91dHB1dC0xNjYxMzcxNzk2Nzg5IC5mbG93Y2hhcnQtbGlua3tzdHJva2U6IzY2NjtmaWxsOm5vbmU7fSNnZU1lcm1haWRPdXRwdXQtMTY2MTM3MTc5Njc4OSAuZWRnZUxhYmVse2JhY2tncm91bmQtY29sb3I6d2hpdGU7dGV4dC1hbGlnbjpjZW50ZXI7fSNnZU1lcm1haWRPdXRwdXQtMTY2MTM3MTc5Njc4OSAuZWRnZUxhYmVsIHJlY3R7b3BhY2l0eTowLjU7YmFja2dyb3VuZC1jb2xvcjp3aGl0ZTtmaWxsOndoaXRlO30jZ2VNZXJtYWlkT3V0cHV0LTE2NjEzNzE3OTY3ODkgLmNsdXN0ZXIgcmVjdHtmaWxsOmhzbCgwLCAwJSwgOTguOTIxNTY4NjI3NSUpO3N0cm9rZTojNzA3MDcwO3N0cm9rZS13aWR0aDoxcHg7fSNnZU1lcm1haWRPdXRwdXQtMTY2MTM3MTc5Njc4OSAuY2x1c3RlciB0ZXh0e2ZpbGw6IzMzMzt9I2dlTWVybWFpZE91dHB1dC0xNjYxMzcxNzk2Nzg5IC5jbHVzdGVyIHNwYW57Y29sb3I6IzMzMzt9I2dlTWVybWFpZE91dHB1dC0xNjYxMzcxNzk2Nzg5IGRpdi5tZXJtYWlkVG9vbHRpcHtwb3NpdGlvbjphYnNvbHV0ZTt0ZXh0LWFsaWduOmNlbnRlcjttYXgtd2lkdGg6MjAwcHg7cGFkZGluZzoycHg7Zm9udC1mYW1pbHk6InRyZWJ1Y2hldCBtcyIsdmVyZGFuYSxhcmlhbCxzYW5zLXNlcmlmO2ZvbnQtc2l6ZToxMnB4O2JhY2tncm91bmQ6aHNsKC0xNjAsIDAlLCA5My4zMzMzMzMzMzMzJSk7Ym9yZGVyOjFweCBzb2xpZCAjNzA3MDcwO2JvcmRlci1yYWRpdXM6MnB4O3BvaW50ZXItZXZlbnRzOm5vbmU7ei1pbmRleDoxMDA7fSNnZU1lcm1haWRPdXRwdXQtMTY2MTM3MTc5Njc4OSA6cm9vdHstLW1lcm1haWQtZm9udC1mYW1pbHk6InRyZWJ1Y2hldCBtcyIsdmVyZGFuYSxhcmlhbCxzYW5zLXNlcmlmO30jZ2VNZXJtYWlkT3V0cHV0LTE2NjEzNzE3OTY3ODkgLmFjdGl2ZSBwYXRoe3N0cm9rZS13aWR0aDo0cHghaW1wb3J0YW50O30jZ2VNZXJtYWlkT3V0cHV0LTE2NjEzNzE3OTY3ODkgLmFjdGl2ZSByZWN0e3N0cm9rZS13aWR0aDo0cHghaW1wb3J0YW50O30jZ2VNZXJtYWlkT3V0cHV0LTE2NjEzNzE3OTY3ODkgLmFjdGl2ZSBwb2x5Z29ue3N0cm9rZS13aWR0aDo0cHghaW1wb3J0YW50O30jZ2VNZXJtYWlkT3V0cHV0LTE2NjEzNzE3OTY3ODkgLmFjdGl2ZSBlbGxpcHNle3N0cm9rZS13aWR0aDo0cHghaW1wb3J0YW50O30jZ2VNZXJtYWlkT3V0cHV0LTE2NjEzNzE3OTY3ODkgLmFjdGl2ZSBjaXJjbGV7c3Ryb2tlLXdpZHRoOjRweCFpbXBvcnRhbnQ7fTwvc3R5bGU+PGcgdHJhbnNmb3JtPSJ0cmFuc2xhdGUoMCwgMCkiPjxtYXJrZXIgb3JpZW50PSJhdXRvIiBtYXJrZXJIZWlnaHQ9IjEyIiBtYXJrZXJXaWR0aD0iMTIiIG1hcmtlclVuaXRzPSJ1c2VyU3BhY2VPblVzZSIgcmVmWT0iNSIgcmVmWD0iOSIgdmlld0JveD0iMCAwIDEwIDEwIiBjbGFzcz0ibWFya2VyIGZsb3djaGFydCIgaWQ9ImZsb3djaGFydC1wb2ludEVuZCI+PHBhdGggc3R5bGU9InN0cm9rZS13aWR0aDogMXB4OyBzdHJva2UtZGFzaGFycmF5OiAxcHgsIDBweDsiIGNsYXNzPSJhcnJvd01hcmtlclBhdGgiIGQ9Ik0gMCAwIEwgMTAgNSBMIDAgMTAgeiI+PC9wYXRoPjwvbWFya2VyPjxtYXJrZXIgb3JpZW50PSJhdXRvIiBtYXJrZXJIZWlnaHQ9IjEyIiBtYXJrZXJXaWR0aD0iMTIiIG1hcmtlclVuaXRzPSJ1c2VyU3BhY2VPblVzZSIgcmVmWT0iNSIgcmVmWD0iMCIgdmlld0JveD0iMCAwIDEwIDEwIiBjbGFzcz0ibWFya2VyIGZsb3djaGFydCIgaWQ9ImZsb3djaGFydC1wb2ludFN0YXJ0Ij48cGF0aCBzdHlsZT0ic3Ryb2tlLXdpZHRoOiAxcHg7IHN0cm9rZS1kYXNoYXJyYXk6IDFweCwgMHB4OyIgY2xhc3M9ImFycm93TWFya2VyUGF0aCIgZD0iTSAwIDUgTCAxMCAxMCBMIDEwIDAgeiI+PC9wYXRoPjwvbWFya2VyPjxtYXJrZXIgb3JpZW50PSJhdXRvIiBtYXJrZXJIZWlnaHQ9IjExIiBtYXJrZXJXaWR0aD0iMTEiIG1hcmtlclVuaXRzPSJ1c2VyU3BhY2VPblVzZSIgcmVmWT0iNSIgcmVmWD0iMTEiIHZpZXdCb3g9IjAgMCAxMCAxMCIgY2xhc3M9Im1hcmtlciBmbG93Y2hhcnQiIGlkPSJmbG93Y2hhcnQtY2lyY2xlRW5kIj48Y2lyY2xlIHN0eWxlPSJzdHJva2Utd2lkdGg6IDFweDsgc3Ryb2tlLWRhc2hhcnJheTogMXB4LCAwcHg7IiBjbGFzcz0iYXJyb3dNYXJrZXJQYXRoIiByPSI1IiBjeT0iNSIgY3g9IjUiPjwvY2lyY2xlPjwvbWFya2VyPjxtYXJrZXIgb3JpZW50PSJhdXRvIiBtYXJrZXJIZWlnaHQ9IjExIiBtYXJrZXJXaWR0aD0iMTEiIG1hcmtlclVuaXRzPSJ1c2VyU3BhY2VPblVzZSIgcmVmWT0iNSIgcmVmWD0iLTEiIHZpZXdCb3g9IjAgMCAxMCAxMCIgY2xhc3M9Im1hcmtlciBmbG93Y2hhcnQiIGlkPSJmbG93Y2hhcnQtY2lyY2xlU3RhcnQiPjxjaXJjbGUgc3R5bGU9InN0cm9rZS13aWR0aDogMXB4OyBzdHJva2UtZGFzaGFycmF5OiAxcHgsIDBweDsiIGNsYXNzPSJhcnJvd01hcmtlclBhdGgiIHI9IjUiIGN5PSI1IiBjeD0iNSI+PC9jaXJjbGU+PC9tYXJrZXI+PG1hcmtlciBvcmllbnQ9ImF1dG8iIG1hcmtlckhlaWdodD0iMTEiIG1hcmtlcldpZHRoPSIxMSIgbWFya2VyVW5pdHM9InVzZXJTcGFjZU9uVXNlIiByZWZZPSI1LjIiIHJlZlg9IjEyIiB2aWV3Qm94PSIwIDAgMTEgMTEiIGNsYXNzPSJtYXJrZXIgY3Jvc3MgZmxvd2NoYXJ0IiBpZD0iZmxvd2NoYXJ0LWNyb3NzRW5kIj48cGF0aCBzdHlsZT0ic3Ryb2tlLXdpZHRoOiAycHg7IHN0cm9rZS1kYXNoYXJyYXk6IDFweCwgMHB4OyIgY2xhc3M9ImFycm93TWFya2VyUGF0aCIgZD0iTSAxLDEgbCA5LDkgTSAxMCwxIGwgLTksOSI+PC9wYXRoPjwvbWFya2VyPjxtYXJrZXIgb3JpZW50PSJhdXRvIiBtYXJrZXJIZWlnaHQ9IjExIiBtYXJrZXJXaWR0aD0iMTEiIG1hcmtlclVuaXRzPSJ1c2VyU3BhY2VPblVzZSIgcmVmWT0iNS4yIiByZWZYPSItMSIgdmlld0JveD0iMCAwIDExIDExIiBjbGFzcz0ibWFya2VyIGNyb3NzIGZsb3djaGFydCIgaWQ9ImZsb3djaGFydC1jcm9zc1N0YXJ0Ij48cGF0aCBzdHlsZT0ic3Ryb2tlLXdpZHRoOiAycHg7IHN0cm9rZS1kYXNoYXJyYXk6IDFweCwgMHB4OyIgY2xhc3M9ImFycm93TWFya2VyUGF0aCIgZD0iTSAxLDEgbCA5LDkgTSAxMCwxIGwgLTksOSI+PC9wYXRoPjwvbWFya2VyPjxnIGNsYXNzPSJyb290Ij48ZyBjbGFzcz0iY2x1c3RlcnMiPjwvZz48ZyBjbGFzcz0iZWRnZVBhdGhzIj48cGF0aCBtYXJrZXItZW5kPSJ1cmwoI2Zsb3djaGFydC1wb2ludEVuZCkiIHN0eWxlPSJmaWxsOm5vbmU7IiBjbGFzcz0iZWRnZS10aGlja25lc3Mtbm9ybWFsIGVkZ2UtcGF0dGVybi1zb2xpZCBmbG93Y2hhcnQtbGluayBMUy1kZXZpY2VzIExFLWFnZW50cyIgaWQ9IkwtZGV2aWNlcy1hZ2VudHMtMCIgZD0iTTM2Ny43MTg3NSw0MS41OTM3NUwzNjcuNzE4NzUsNDcuMzA5ODk1ODMzMzMzMzM2QzM2Ny43MTg3NSw1My4wMjYwNDE2NjY2NjY2NjQsMzY3LjcxODc1LDY0LjQ1ODMzMzMzMzMzMzMzLDM2Ny43MTg3NSw3NS44OTA2MjVDMzY3LjcxODc1LDg3LjMyMjkxNjY2NjY2NjY3LDM2Ny43MTg3NSw5OC43NTUyMDgzMzMzMzMzMywzNjcuNzE4NzUsMTA0LjQ3MTM1NDE2NjY2NjY3TDM2Ny43MTg3NSwxMTAuMTg3NSI+PC9wYXRoPjxwYXRoIG1hcmtlci1lbmQ9InVybCgjZmxvd2NoYXJ0LXBvaW50RW5kKSIgc3R5bGU9ImZpbGw6bm9uZTsiIGNsYXNzPSJlZGdlLXRoaWNrbmVzcy1ub3JtYWwgZWRnZS1wYXR0ZXJuLXNvbGlkIGZsb3djaGFydC1saW5rIExTLWFnZW50cyBMRS1nYXRld2F5IiBpZD0iTC1hZ2VudHMtZ2F0ZXdheS0wIiBkPSJNMzY3LjcxODc1LDE0My43ODEyNUwzNjcuNzE4NzUsMTQ5LjQ5NzM5NTgzMzMzMzM0QzM2Ny43MTg3NSwxNTUuMjEzNTQxNjY2NjY2NjYsMzY3LjcxODc1LDE2Ni42NDU4MzMzMzMzMzMzNCw0MTYuNDE5OTIxODc1LDE3OS41NzkxNzQ2ODYwMjM2QzQ2NS4xMjEwOTM3NSwxOTIuNTEyNTE2MDM4NzEzODcsNTYyLjUyMzQzNzUsMjA2Ljk0NjkwNzA3NzQyNzY4LDYxMS4yMjQ2MDkzNzUsMjE0LjE2NDEwMjU5Njc4NDZMNjU5LjkyNTc4MTI1LDIyMS4zODEyOTgxMTYxNDE1MiI+PC9wYXRoPjxwYXRoIG1hcmtlci1lbmQ9InVybCgjZmxvd2NoYXJ0LXBvaW50RW5kKSIgc3R5bGU9ImZpbGw6bm9uZTsiIGNsYXNzPSJlZGdlLXRoaWNrbmVzcy1ub3JtYWwgZWRnZS1wYXR0ZXJuLXNvbGlkIGZsb3djaGFydC1saW5rIExTLXVzZXJzIExFLXVzZXJfYXBwIiBpZD0iTC11c2Vycy11c2VyX2FwcC0wIiBkPSJNNDg4LjU0Njg3NSw0MS41OTM3NUw0ODguNTQ2ODc1LDQ3LjMwOTg5NTgzMzMzMzMzNkM0ODguNTQ2ODc1LDUzLjAyNjA0MTY2NjY2NjY2NCw0ODguNTQ2ODc1LDY0LjQ1ODMzMzMzMzMzMzMzLDQ4OC41NDY4NzUsNzUuODkwNjI1QzQ4OC41NDY4NzUsODcuMzIyOTE2NjY2NjY2NjcsNDg4LjU0Njg3NSw5OC43NTUyMDgzMzMzMzMzMyw0ODguNTQ2ODc1LDEwNC40NzEzNTQxNjY2NjY2N0w0ODguNTQ2ODc1LDExMC4xODc1Ij48L3BhdGg+PHBhdGggbWFya2VyLWVuZD0idXJsKCNmbG93Y2hhcnQtcG9pbnRFbmQpIiBzdHlsZT0iZmlsbDpub25lOyIgY2xhc3M9ImVkZ2UtdGhpY2tuZXNzLW5vcm1hbCBlZGdlLXBhdHRlcm4tc29saWQgZmxvd2NoYXJ0LWxpbmsgTFMtdXNlcl9hcHAgTEUtZ2F0ZXdheSIgaWQ9IkwtdXNlcl9hcHAtZ2F0ZXdheS0wIiBkPSJNNDg4LjU0Njg3NSwxNDMuNzgxMjVMNDg4LjU0Njg3NSwxNDkuNDk3Mzk1ODMzMzMzMzRDNDg4LjU0Njg3NSwxNTUuMjEzNTQxNjY2NjY2NjYsNDg4LjU0Njg3NSwxNjYuNjQ1ODMzMzMzMzMzMzQsNTE3LjExMDAyNjA0MTY2NjYsMTc4Ljg3ODYyODM3MjU5MzY1QzU0NS42NzMxNzcwODMzMzM0LDE5MS4xMTE0MjM0MTE4NTM5Niw2MDIuNzk5NDc5MTY2NjY2NiwyMDQuMTQ0NzIxODIzNzA3OTUsNjMxLjM2MjYzMDIwODMzMzQsMjEwLjY2MTM3MTAyOTYzNDkyTDY1OS45MjU3ODEyNSwyMTcuMTc4MDIwMjM1NTYxOTIiPjwvcGF0aD48cGF0aCBtYXJrZXItZW5kPSJ1cmwoI2Zsb3djaGFydC1wb2ludEVuZCkiIHN0eWxlPSJmaWxsOm5vbmU7IiBjbGFzcz0iZWRnZS10aGlja25lc3Mtbm9ybWFsIGVkZ2UtcGF0dGVybi1zb2xpZCBmbG93Y2hhcnQtbGluayBMUy1jb250cm9sbGVycyBMRS1jb250cm9sbGVyX2FwcCIgaWQ9IkwtY29udHJvbGxlcnMtY29udHJvbGxlcl9hcHAtMCIgZD0iTTYzNy43NSw0MS41OTM3NUw2MzcuNzUsNDcuMzA5ODk1ODMzMzMzMzM2QzYzNy43NSw1My4wMjYwNDE2NjY2NjY2NjQsNjM3Ljc1LDY0LjQ1ODMzMzMzMzMzMzMzLDYzNy43NSw3NS44OTA2MjVDNjM3Ljc1LDg3LjMyMjkxNjY2NjY2NjY3LDYzNy43NSw5OC43NTUyMDgzMzMzMzMzMyw2MzcuNzUsMTA0LjQ3MTM1NDE2NjY2NjY3TDYzNy43NSwxMTAuMTg3NSI+PC9wYXRoPjxwYXRoIG1hcmtlci1lbmQ9InVybCgjZmxvd2NoYXJ0LXBvaW50RW5kKSIgc3R5bGU9ImZpbGw6bm9uZTsiIGNsYXNzPSJlZGdlLXRoaWNrbmVzcy1ub3JtYWwgZWRnZS1wYXR0ZXJuLXNvbGlkIGZsb3djaGFydC1saW5rIExTLWNvbnRyb2xsZXJfYXBwIExFLWdhdGV3YXkiIGlkPSJMLWNvbnRyb2xsZXJfYXBwLWdhdGV3YXktMCIgZD0iTTYzNy43NSwxNDMuNzgxMjVMNjM3Ljc1LDE0OS40OTczOTU4MzMzMzMzNEM2MzcuNzUsMTU1LjIxMzU0MTY2NjY2NjY2LDYzNy43NSwxNjYuNjQ1ODMzMzMzMzMzMzQsNjQ2LjExMjI2Njg1OTM5MDgsMTc4LjA3ODEyNUM2NTQuNDc0NTMzNzE4NzgxOCwxODkuNTEwNDE2NjY2NjY2NjYsNjcxLjE5OTA2NzQzNzU2MzcsMjAwLjk0MjcwODMzMzMzMzM0LDY3OS41NjEzMzQyOTY5NTQ2LDIwNi42NTg4NTQxNjY2NjY2Nkw2ODcuOTIzNjAxMTU2MzQ1NSwyMTIuMzc1Ij48L3BhdGg+PHBhdGggbWFya2VyLWVuZD0idXJsKCNmbG93Y2hhcnQtcG9pbnRFbmQpIiBzdHlsZT0iZmlsbDpub25lOyIgY2xhc3M9ImVkZ2UtdGhpY2tuZXNzLW5vcm1hbCBlZGdlLXBhdHRlcm4tc29saWQgZmxvd2NoYXJ0LWxpbmsgTFMtYmlsbGluZyBMRS1iaWxsaW5nX2FwcCIgaWQ9IkwtYmlsbGluZy1iaWxsaW5nX2FwcC0wIiBkPSJNNzkzLjI1LDQxLjU5Mzc1TDc5My4yNSw0Ny4zMDk4OTU4MzMzMzMzMzZDNzkzLjI1LDUzLjAyNjA0MTY2NjY2NjY2NCw3OTMuMjUsNjQuNDU4MzMzMzMzMzMzMzMsNzkzLjI1LDc1Ljg5MDYyNUM3OTMuMjUsODcuMzIyOTE2NjY2NjY2NjcsNzkzLjI1LDk4Ljc1NTIwODMzMzMzMzMzLDc5My4yNSwxMDQuNDcxMzU0MTY2NjY2NjdMNzkzLjI1LDExMC4xODc1Ij48L3BhdGg+PHBhdGggbWFya2VyLWVuZD0idXJsKCNmbG93Y2hhcnQtcG9pbnRFbmQpIiBzdHlsZT0iZmlsbDpub25lOyIgY2xhc3M9ImVkZ2UtdGhpY2tuZXNzLW5vcm1hbCBlZGdlLXBhdHRlcm4tc29saWQgZmxvd2NoYXJ0LWxpbmsgTFMtYmlsbGluZ19hcHAgTEUtZ2F0ZXdheSIgaWQ9IkwtYmlsbGluZ19hcHAtZ2F0ZXdheS0wIiBkPSJNNzkzLjI1LDE0My43ODEyNUw3OTMuMjUsMTQ5LjQ5NzM5NTgzMzMzMzM0Qzc5My4yNSwxNTUuMjEzNTQxNjY2NjY2NjYsNzkzLjI1LDE2Ni42NDU4MzMzMzMzMzMzNCw3ODQuMjE1NjA1Mjg5NTY0MiwxNzguMDc4MTI1Qzc3NS4xODEyMTA1NzkxMjgzLDE4OS41MTA0MTY2NjY2NjY2Niw3NTcuMTEyNDIxMTU4MjU2OSwyMDAuOTQyNzA4MzMzMzMzMzQsNzQ4LjA3ODAyNjQ0NzgyMTEsMjA2LjY1ODg1NDE2NjY2NjY2TDczOS4wNDM2MzE3MzczODUzLDIxMi4zNzUiPjwvcGF0aD48cGF0aCBtYXJrZXItZW5kPSJ1cmwoI2Zsb3djaGFydC1wb2ludEVuZCkiIHN0eWxlPSJmaWxsOm5vbmU7IiBjbGFzcz0iZWRnZS10aGlja25lc3Mtbm9ybWFsIGVkZ2UtcGF0dGVybi1zb2xpZCBmbG93Y2hhcnQtbGluayBMUy1vcGVyYXRvcnMgTEUtb3BlcmF0b3JfYXBwIiBpZD0iTC1vcGVyYXRvcnMtb3BlcmF0b3JfYXBwLTAiIGQ9Ik05NDQuNjMyODEyNSw0MS41OTM3NUw5NDQuNjMyODEyNSw0Ny4zMDk4OTU4MzMzMzMzMzZDOTQ0LjYzMjgxMjUsNTMuMDI2MDQxNjY2NjY2NjY0LDk0NC42MzI4MTI1LDY0LjQ1ODMzMzMzMzMzMzMzLDk0NC42MzI4MTI1LDc1Ljg5MDYyNUM5NDQuNjMyODEyNSw4Ny4zMjI5MTY2NjY2NjY2Nyw5NDQuNjMyODEyNSw5OC43NTUyMDgzMzMzMzMzMyw5NDQuNjMyODEyNSwxMDQuNDcxMzU0MTY2NjY2NjdMOTQ0LjYzMjgxMjUsMTEwLjE4NzUiPjwvcGF0aD48cGF0aCBtYXJrZXItZW5kPSJ1cmwoI2Zsb3djaGFydC1wb2ludEVuZCkiIHN0eWxlPSJmaWxsOm5vbmU7IiBjbGFzcz0iZWRnZS10aGlja25lc3Mtbm9ybWFsIGVkZ2UtcGF0dGVybi1zb2xpZCBmbG93Y2hhcnQtbGluayBMUy1vcGVyYXRvcl9hcHAgTEUtZ2F0ZXdheSIgaWQ9Ikwtb3BlcmF0b3JfYXBwLWdhdGV3YXktMCIgZD0iTTk0NC42MzI4MTI1LDE0My43ODEyNUw5NDQuNjMyODEyNSwxNDkuNDk3Mzk1ODMzMzMzMzRDOTQ0LjYzMjgxMjUsMTU1LjIxMzU0MTY2NjY2NjY2LDk0NC42MzI4MTI1LDE2Ni42NDU4MzMzMzMzMzMzNCw5MTQuNzA1MDc4MTI1LDE3OC45NDkxMzI1NzU0NzA3N0M4ODQuNzc3MzQzNzUsMTkxLjI1MjQzMTgxNzYwODE0LDgyNC45MjE4NzUsMjA0LjQyNjczODYzNTIxNjMsNzk0Ljk5NDE0MDYyNSwyMTEuMDEzODkyMDQ0MDIwNEw3NjUuMDY2NDA2MjUsMjE3LjYwMTA0NTQ1MjgyNDQ4Ij48L3BhdGg+PHBhdGggbWFya2VyLWVuZD0idXJsKCNmbG93Y2hhcnQtcG9pbnRFbmQpIiBzdHlsZT0iZmlsbDpub25lOyIgY2xhc3M9ImVkZ2UtdGhpY2tuZXNzLW5vcm1hbCBlZGdlLXBhdHRlcm4tc29saWQgZmxvd2NoYXJ0LWxpbmsgTFMtZXhwZXJpbWVudCBMRS1leHBlcmltZW50X2FwcCIgaWQ9IkwtZXhwZXJpbWVudC1leHBlcmltZW50X2FwcC0wIiBkPSJNMTExNC44NjcxODc1LDQxLjU5Mzc1TDExMTQuODY3MTg3NSw0Ny4zMDk4OTU4MzMzMzMzMzZDMTExNC44NjcxODc1LDUzLjAyNjA0MTY2NjY2NjY2NCwxMTE0Ljg2NzE4NzUsNjQuNDU4MzMzMzMzMzMzMzMsMTExNC44NjcxODc1LDc1Ljg5MDYyNUMxMTE0Ljg2NzE4NzUsODcuMzIyOTE2NjY2NjY2NjcsMTExNC44NjcxODc1LDk4Ljc1NTIwODMzMzMzMzMzLDExMTQuODY3MTg3NSwxMDQuNDcxMzU0MTY2NjY2NjdMMTExNC44NjcxODc1LDExMC4xODc1Ij48L3BhdGg+PHBhdGggbWFya2VyLWVuZD0idXJsKCNmbG93Y2hhcnQtcG9pbnRFbmQpIiBzdHlsZT0iZmlsbDpub25lOyIgY2xhc3M9ImVkZ2UtdGhpY2tuZXNzLW5vcm1hbCBlZGdlLXBhdHRlcm4tc29saWQgZmxvd2NoYXJ0LWxpbmsgTFMtZXhwZXJpbWVudF9hcHAgTEUtZ2F0ZXdheSIgaWQ9IkwtZXhwZXJpbWVudF9hcHAtZ2F0ZXdheS0wIiBkPSJNMTExNC44NjcxODc1LDE0My43ODEyNUwxMTE0Ljg2NzE4NzUsMTQ5LjQ5NzM5NTgzMzMzMzM0QzExMTQuODY3MTg3NSwxNTUuMjEzNTQxNjY2NjY2NjYsMTExNC44NjcxODc1LDE2Ni42NDU4MzMzMzMzMzMzNCwxMDU2LjU2NzA1NzI5MTY2NjcsMTc5Ljc2NTAyNjU2MjcxNzRDOTk4LjI2NjkyNzA4MzMzMzQsMTkyLjg4NDIxOTc5MjEwMTUsODgxLjY2NjY2NjY2NjY2NjYsMjA3LjY5MDMxNDU4NDIwMzA0LDgyMy4zNjY1MzY0NTgzMzM0LDIxNS4wOTMzNjE5ODAyNTM3N0w3NjUuMDY2NDA2MjUsMjIyLjQ5NjQwOTM3NjMwNDUiPjwvcGF0aD48cGF0aCBtYXJrZXItZW5kPSJ1cmwoI2Zsb3djaGFydC1wb2ludEVuZCkiIHN0eWxlPSJmaWxsOm5vbmU7IiBjbGFzcz0iZWRnZS10aGlja25lc3Mtbm9ybWFsIGVkZ2UtcGF0dGVybi1zb2xpZCBmbG93Y2hhcnQtbGluayBMUy1nYXRld2F5IExFLWF1dGgiIGlkPSJMLWdhdGV3YXktYXV0aC0wIiBkPSJNNjU5LjkyNTc4MTI1LDIzMi40NTI0NDE1NTE0ODI4Mkw1NTcuMDU2NjQwNjI1LDIzOC44NzE4MjYyOTI5MDIzN0M0NTQuMTg3NSwyNDUuMjkxMjExMDM0MzIxOSwyNDguNDQ5MjE4NzUsMjU4LjEyOTk4MDUxNzE2MDk2LDE0NS41ODAwNzgxMjUsMjY4LjcxNjAzMTkyNTI0NzE0QzQyLjcxMDkzNzUsMjc5LjMwMjA4MzMzMzMzMzMsNDIuNzEwOTM3NSwyODcuNjM1NDE2NjY2NjY2Nyw0Mi43MTA5Mzc1LDI5MS44MDIwODMzMzMzMzMzTDQyLjcxMDkzNzUsMjk1Ljk2ODc1Ij48L3BhdGg+PHBhdGggbWFya2VyLWVuZD0idXJsKCNmbG93Y2hhcnQtcG9pbnRFbmQpIiBzdHlsZT0iZmlsbDpub25lOyIgY2xhc3M9ImVkZ2UtdGhpY2tuZXNzLW5vcm1hbCBlZGdlLXBhdHRlcm4tc29saWQgZmxvd2NoYXJ0LWxpbmsgTFMtZ2F0ZXdheSBMRS1zMyIgaWQ9IkwtZ2F0ZXdheS1zMy0wIiBkPSJNNjU5LjkyNTc4MTI1LDIzMy4wMjk5NDIyMjc4MjczNUw1NzMuNzY2Mjc2MDQxNjY2NiwyMzkuMzUzMDc2ODU2NTIyOEM0ODcuNjA2NzcwODMzMzMzMywyNDUuNjc2MjExNDg1MjE4MjMsMzE1LjI4Nzc2MDQxNjY2NjcsMjU4LjMyMjQ4MDc0MjYwOTEsMjI5LjEyODI1NTIwODMzMzM0LDI2OC44MTIyODIwMzc5NzEyQzE0Mi45Njg3NSwyNzkuMzAyMDgzMzMzMzMzMywxNDIuOTY4NzUsMjg3LjYzNTQxNjY2NjY2NjcsMTQyLjk2ODc1LDI5MS44MDIwODMzMzMzMzMzTDE0Mi45Njg3NSwyOTUuOTY4NzUiPjwvcGF0aD48cGF0aCBtYXJrZXItZW5kPSJ1cmwoI2Zsb3djaGFydC1wb2ludEVuZCkiIHN0eWxlPSJmaWxsOm5vbmU7IiBjbGFzcz0iZWRnZS10aGlja25lc3Mtbm9ybWFsIGVkZ2UtcGF0dGVybi1zb2xpZCBmbG93Y2hhcnQtbGluayBMUy1zMyBMRS13ZWJzaXRlcyIgaWQ9IkwtczMtd2Vic2l0ZXMtMCIgZD0iTTE0Mi45Njg3NSwzMjkuNTYyNUwxNDIuOTY4NzUsMzMzLjcyOTE2NjY2NjY2NjdDMTQyLjk2ODc1LDMzNy44OTU4MzMzMzMzMzMzLDE0Mi45Njg3NSwzNDYuMjI5MTY2NjY2NjY2NywxNDIuOTY4NzUsMzU3Ljg4ODAyMDgzMzMzMzNDMTQyLjk2ODc1LDM2OS41NDY4NzUsMTQyLjk2ODc1LDM4NC41MzEyNSwxNDIuOTY4NzUsMzkyLjAyMzQzNzVMMTQyLjk2ODc1LDM5OS41MTU2MjUiPjwvcGF0aD48cGF0aCBtYXJrZXItZW5kPSJ1cmwoI2Zsb3djaGFydC1wb2ludEVuZCkiIHN0eWxlPSJmaWxsOm5vbmU7IiBjbGFzcz0iZWRnZS10aGlja25lc3Mtbm9ybWFsIGVkZ2UtcGF0dGVybi1zb2xpZCBmbG93Y2hhcnQtbGluayBMUy1nYXRld2F5IExFLWVjMiIgaWQ9IkwtZ2F0ZXdheS1lYzItMCIgZD0iTTY1OS45MjU3ODEyNSwyMzkuNTg0MzQyOTUyODcxMDVMNjMzLjUxNjkyNzA4MzMzMzQsMjQ0LjgxNTA3NzQ2MDcyNTlDNjA3LjEwODA3MjkxNjY2NjYsMjUwLjA0NTgxMTk2ODU4MDcsNTU0LjI5MDM2NDU4MzMzMzQsMjYwLjUwNzI4MDk4NDI5MDQsNTI3Ljg4MTUxMDQxNjY2NjYsMjY5LjkwNDY4MjE1ODgxMTg1QzUwMS40NzI2NTYyNSwyNzkuMzAyMDgzMzMzMzMzMyw1MDEuNDcyNjU2MjUsMjg3LjYzNTQxNjY2NjY2NjcsNTAxLjQ3MjY1NjI1LDI5MS44MDIwODMzMzMzMzMzTDUwMS40NzI2NTYyNSwyOTUuOTY4NzUiPjwvcGF0aD48cGF0aCBtYXJrZXItZW5kPSJ1cmwoI2Zsb3djaGFydC1wb2ludEVuZCkiIHN0eWxlPSJmaWxsOm5vbmU7IiBjbGFzcz0iZWRnZS10aGlja25lc3Mtbm9ybWFsIGVkZ2UtcGF0dGVybi1zb2xpZCBmbG93Y2hhcnQtbGluayBMUy1lYzIgTEUtZWxiIiBpZD0iTC1lYzItZWxiLTAiIGQ9Ik00ODAuNzA3MDMxMjUsMzE2LjMxNTM2MTE5Njc2MDFMNDQzLjQxNjY2NjY2NjY2NjcsMzIyLjY4OTg4NDMzMDYzMzRDNDA2LjEyNjMwMjA4MzMzMzMsMzI5LjA2NDQwNzQ2NDUwNjcsMzMxLjU0NTU3MjkxNjY2NjcsMzQxLjgxMzQ1MzczMjI1MzMsMjk0LjI1NTIwODMzMzMzMzMsMzU1LjA4NTExMjI4Mjc5MzNDMjU2Ljk2NDg0Mzc1LDM2OC4zNTY3NzA4MzMzMzMzLDI1Ni45NjQ4NDM3NSwzODIuMTUxMDQxNjY2NjY2NywyNTYuOTY0ODQzNzUsMzg5LjA0ODE3NzA4MzMzMzNMMjU2Ljk2NDg0Mzc1LDM5NS45NDUzMTI1Ij48L3BhdGg+PHBhdGggbWFya2VyLWVuZD0idXJsKCNmbG93Y2hhcnQtcG9pbnRFbmQpIiBzdHlsZT0iZmlsbDpub25lOyIgY2xhc3M9ImVkZ2UtdGhpY2tuZXNzLW5vcm1hbCBlZGdlLXBhdHRlcm4tc29saWQgZmxvd2NoYXJ0LWxpbmsgTFMtZWMyIExFLWVicyIgaWQ9IkwtZWMyLWVicy0wIiBkPSJNNDgwLjcwNzAzMTI1LDMxOC41NjA0ODE2MjMxMTI0TDQ1OS4yMDUwNzgxMjUsMzI0LjU2MDgxODAxOTI2MDM1QzQzNy43MDMxMjUsMzMwLjU2MTE1NDQxNTQwODMsMzk0LjY5OTIxODc1LDM0Mi41NjE4MjcyMDc3MDQyLDM3My4xOTcyNjU2MjUsMzU2LjA1NDM1MTEwMzg1MjA3QzM1MS42OTUzMTI1LDM2OS41NDY4NzUsMzUxLjY5NTMxMjUsMzg0LjUzMTI1LDM1MS42OTUzMTI1LDM5Mi4wMjM0Mzc1TDM1MS42OTUzMTI1LDM5OS41MTU2MjUiPjwvcGF0aD48cGF0aCBtYXJrZXItZW5kPSJ1cmwoI2Zsb3djaGFydC1wb2ludEVuZCkiIHN0eWxlPSJmaWxsOm5vbmU7IiBjbGFzcz0iZWRnZS10aGlja25lc3Mtbm9ybWFsIGVkZ2UtcGF0dGVybi1zb2xpZCBmbG93Y2hhcnQtbGluayBMUy1lYzIgTEUtZG5zIiBpZD0iTC1lYzItZG5zLTAiIGQ9Ik00ODAuNzA3MDMxMjUsMzI4LjgyMjI5NDEzNTcxMzI2TDQ3NS4xNTg4NTQxNjY2NjY3LDMzMy4xMTIzMjg0NDY0Mjc3NEM0NjkuNjEwNjc3MDgzMzMzMywzMzcuNDAyMzYyNzU3MTQyMTYsNDU4LjUxNDMyMjkxNjY2NjcsMzQ1Ljk4MjQzMTM3ODU3MTEsNDUyLjk2NjE0NTgzMzMzMzMsMzU3LjAwNDIzNjUyMjYxODlDNDQ3LjQxNzk2ODc1LDM2OC4wMjYwNDE2NjY2NjY3LDQ0Ny40MTc5Njg3NSwzODEuNDg5NTgzMzMzMzMzMyw0NDcuNDE3OTY4NzUsMzg4LjIyMTM1NDE2NjY2NjdMNDQ3LjQxNzk2ODc1LDM5NC45NTMxMjUiPjwvcGF0aD48cGF0aCBtYXJrZXItZW5kPSJ1cmwoI2Zsb3djaGFydC1wb2ludEVuZCkiIHN0eWxlPSJmaWxsOm5vbmU7IiBjbGFzcz0iZWRnZS10aGlja25lc3Mtbm9ybWFsIGVkZ2UtcGF0dGVybi1zb2xpZCBmbG93Y2hhcnQtbGluayBMUy1lYzIgTEUtcm91dGU1MyIgaWQ9IkwtZWMyLXJvdXRlNTMtMCIgZD0iTTUyMi4yMzgyODEyNSwzMjguODIyMjk0MTM1NzEzMjZMNTI3Ljc4NjQ1ODMzMzMzMzQsMzMzLjExMjMyODQ0NjQyNzc0QzUzMy4zMzQ2MzU0MTY2NjY2LDMzNy40MDIzNjI3NTcxNDIxNiw1NDQuNDMwOTg5NTgzMzMzNCwzNDUuOTgyNDMxMzc4NTcxMSw1NDkuOTc5MTY2NjY2NjY2NiwzNTQuNDM5MTMyMzU1OTUyMjdDNTU1LjUyNzM0Mzc1LDM2Mi44OTU4MzMzMzMzMzMzLDU1NS41MjczNDM3NSwzNzEuMjI5MTY2NjY2NjY2Nyw1NTUuNTI3MzQzNzUsMzc1LjM5NTgzMzMzMzMzMzNMNTU1LjUyNzM0Mzc1LDM3OS41NjI1Ij48L3BhdGg+PHBhdGggbWFya2VyLWVuZD0idXJsKCNmbG93Y2hhcnQtcG9pbnRFbmQpIiBzdHlsZT0iZmlsbDpub25lOyIgY2xhc3M9ImVkZ2UtdGhpY2tuZXNzLW5vcm1hbCBlZGdlLXBhdHRlcm4tc29saWQgZmxvd2NoYXJ0LWxpbmsgTFMtZWMyIExFLXZwYyIgaWQ9IkwtZWMyLXZwYy0wIiBkPSJNNTIyLjIzODI4MTI1LDMxOC4xMTUwMTMxODEzMzY3TDU0NS44MTkwMTA0MTY2NjY2LDMyNC4xODk1OTQzMTc3ODA2QzU2OS4zOTk3Mzk1ODMzMzM0LDMzMC4yNjQxNzU0NTQyMjQ0Nyw2MTYuNTYxMTk3OTE2NjY2NiwzNDIuNDEzMzM3NzI3MTEyMjYsNjQwLjE0MTkyNzA4MzMzMzQsMzU1LjIwNTM2Njc4MDIyMjczQzY2My43MjI2NTYyNSwzNjcuOTk3Mzk1ODMzMzMzMyw2NjMuNzIyNjU2MjUsMzgxLjQzMjI5MTY2NjY2NjcsNjYzLjcyMjY1NjI1LDM4OC4xNDk3Mzk1ODMzMzMzTDY2My43MjI2NTYyNSwzOTQuODY3MTg3NSI+PC9wYXRoPjxwYXRoIG1hcmtlci1lbmQ9InVybCgjZmxvd2NoYXJ0LXBvaW50RW5kKSIgc3R5bGU9ImZpbGw6bm9uZTsiIGNsYXNzPSJlZGdlLXRoaWNrbmVzcy1ub3JtYWwgZWRnZS1wYXR0ZXJuLXNvbGlkIGZsb3djaGFydC1saW5rIExTLWVjMiBMRS1zZyIgaWQ9IkwtZWMyLXNnLTAiIGQ9Ik01MjIuMjM4MjgxMjUsMzE2LjIzMTA5Njc2MjExODdMNTYwLjUxOTUzMTI1LDMyMi42MTk2NjM5Njg0MzIyM0M1OTguODAwNzgxMjUsMzI5LjAwODIzMTE3NDc0NTgsNjc1LjM2MzI4MTI1LDM0MS43ODUzNjU1ODczNzI5NSw3MTMuNjQ0NTMxMjUsMzU1LjY3MjYzMDcxMDM1MzEzQzc1MS45MjU3ODEyNSwzNjkuNTU5ODk1ODMzMzMzMyw3NTEuOTI1NzgxMjUsMzg0LjU1NzI5MTY2NjY2NjcsNzUxLjkyNTc4MTI1LDM5Mi4wNTU5ODk1ODMzMzMzTDc1MS45MjU3ODEyNSwzOTkuNTU0Njg3NSI+PC9wYXRoPjxwYXRoIG1hcmtlci1lbmQ9InVybCgjZmxvd2NoYXJ0LXBvaW50RW5kKSIgc3R5bGU9ImZpbGw6bm9uZTsiIGNsYXNzPSJlZGdlLXRoaWNrbmVzcy1ub3JtYWwgZWRnZS1wYXR0ZXJuLXNvbGlkIGZsb3djaGFydC1saW5rIExTLWdhdGV3YXkgTEUtbGFtYmRhIiBpZD0iTC1nYXRld2F5LWxhbWJkYS0wIiBkPSJNNzY1LjA2NjQwNjI1LDIzNy4zMDQzOTk4MTMxMzM0NEw4MDEuMzM1Mjg2NDU4MzMzNCwyNDIuOTE1MTI0ODQ0Mjc3ODdDODM3LjYwNDE2NjY2NjY2NjYsMjQ4LjUyNTg0OTg3NTQyMjMsOTEwLjE0MTkyNzA4MzMzMzQsMjU5Ljc0NzI5OTkzNzcxMTE1LDk0Ni40MTA4MDcyOTE2NjY2LDI2OS41MjQ2OTE2MzU1MjIyM0M5ODIuNjc5Njg3NSwyNzkuMzAyMDgzMzMzMzMzMyw5ODIuNjc5Njg3NSwyODcuNjM1NDE2NjY2NjY2Nyw5ODIuNjc5Njg3NSwyOTEuODAyMDgzMzMzMzMzM0w5ODIuNjc5Njg3NSwyOTUuOTY4NzUiPjwvcGF0aD48cGF0aCBtYXJrZXItZW5kPSJ1cmwoI2Zsb3djaGFydC1wb2ludEVuZCkiIHN0eWxlPSJmaWxsOm5vbmU7IiBjbGFzcz0iZWRnZS10aGlja25lc3Mtbm9ybWFsIGVkZ2UtcGF0dGVybi1zb2xpZCBmbG93Y2hhcnQtbGluayBMUy1sYW1iZGEgTEUtc3FzIiBpZD0iTC1sYW1iZGEtc3FzLTAiIGQ9Ik05NDcuMTY0MDYyNSwzMjMuMTE3Nzc4MDgyMzUwMzZMOTI5LjE4NDI0NDc5MTY2NjYsMzI4LjM1ODU2NTA2ODYyNTNDOTExLjIwNDQyNzA4MzMzMzQsMzMzLjU5OTM1MjA1NDkwMDI0LDg3NS4yNDQ3OTE2NjY2NjY2LDM0NC4wODA5MjYwMjc0NTAyLDg1Ny4yNjQ5NzM5NTgzMzM0LDM1Ni4xNzk3ODU5MzAzOTE3NEM4MzkuMjg1MTU2MjUsMzY4LjI3ODY0NTgzMzMzMzMsODM5LjI4NTE1NjI1LDM4MS45OTQ3OTE2NjY2NjY3LDgzOS4yODUxNTYyNSwzODguODUyODY0NTgzMzMzM0w4MzkuMjg1MTU2MjUsMzk1LjcxMDkzNzUiPjwvcGF0aD48cGF0aCBtYXJrZXItZW5kPSJ1cmwoI2Zsb3djaGFydC1wb2ludEVuZCkiIHN0eWxlPSJmaWxsOm5vbmU7IiBjbGFzcz0iZWRnZS10aGlja25lc3Mtbm9ybWFsIGVkZ2UtcGF0dGVybi1zb2xpZCBmbG93Y2hhcnQtbGluayBMUy1sYW1iZGEgTEUtc25zIiBpZD0iTC1sYW1iZGEtc25zLTAiIGQ9Ik05NjEuNTg2MjY2MDYzMDg0MiwzMjkuNTYyNUw5NTYuMzUzNzg5NDI3NTcwMiwzMzMuNzI5MTY2NjY2NjY2N0M5NTEuMTIxMzEyNzkyMDU2MSwzMzcuODk1ODMzMzMzMzMzMyw5NDAuNjU2MzU5NTIxMDI4MSwzNDYuMjI5MTY2NjY2NjY2Nyw5MzUuNDIzODgyODg1NTE0MSwzNTcuMzAzMzg1NDE2NjY2N0M5MzAuMTkxNDA2MjUsMzY4LjM3NzYwNDE2NjY2NjcsOTMwLjE5MTQwNjI1LDM4Mi4xOTI3MDgzMzMzMzMzLDkzMC4xOTE0MDYyNSwzODkuMTAwMjYwNDE2NjY2N0w5MzAuMTkxNDA2MjUsMzk2LjAwNzgxMjUiPjwvcGF0aD48cGF0aCBtYXJrZXItZW5kPSJ1cmwoI2Zsb3djaGFydC1wb2ludEVuZCkiIHN0eWxlPSJmaWxsOm5vbmU7IiBjbGFzcz0iZWRnZS10aGlja25lc3Mtbm9ybWFsIGVkZ2UtcGF0dGVybi1zb2xpZCBmbG93Y2hhcnQtbGluayBMUy1sYW1iZGEgTEUtYXVjdGlvbiIgaWQ9IkwtbGFtYmRhLWF1Y3Rpb24tMCIgZD0iTTEwMDMuNzczMTA4OTM2OTE1OCwzMjkuNTYyNUwxMDA5LjAwNTU4NTU3MjQyOTgsMzMzLjcyOTE2NjY2NjY2NjdDMTAxNC4yMzgwNjIyMDc5NDM5LDMzNy44OTU4MzMzMzMzMzMzLDEwMjQuNzAzMDE1NDc4OTcyLDM0Ni4yMjkxNjY2NjY2NjY3LDEwMjkuOTM1NDkyMTE0NDg2LDM1Ny44ODgwMjA4MzMzMzMzQzEwMzUuMTY3OTY4NzUsMzY5LjU0Njg3NSwxMDM1LjE2Nzk2ODc1LDM4NC41MzEyNSwxMDM1LjE2Nzk2ODc1LDM5Mi4wMjM0Mzc1TDEwMzUuMTY3OTY4NzUsMzk5LjUxNTYyNSI+PC9wYXRoPjxwYXRoIG1hcmtlci1lbmQ9InVybCgjZmxvd2NoYXJ0LXBvaW50RW5kKSIgc3R5bGU9ImZpbGw6bm9uZTsiIGNsYXNzPSJlZGdlLXRoaWNrbmVzcy1ub3JtYWwgZWRnZS1wYXR0ZXJuLXNvbGlkIGZsb3djaGFydC1saW5rIExTLWF1Y3Rpb24gTEUtZGF0YWJhc2UiIGlkPSJMLWF1Y3Rpb24tZGF0YWJhc2UtMCIgZD0iTTEwMzUuMTY3OTY4NzUsNDMzLjEwOTM3NUwxMDM1LjE2Nzk2ODc1LDQ0Mi4xNTEwNDE2NjY2NjY3QzEwMzUuMTY3OTY4NzUsNDUxLjE5MjcwODMzMzMzMzMsMTAzNS4xNjc5Njg3NSw0NjkuMjc2MDQxNjY2NjY2NywxMDUwLjQ2MTU4ODU0MTY2NjcsNDg1LjkzODc2MDk2MjE2ODU0QzEwNjUuNzU1MjA4MzMzMzMzMyw1MDIuNjAxNDgwMjU3NjcwNCwxMDk2LjM0MjQ0NzkxNjY2NjcsNTE3Ljg0MzU4NTUxNTM0MDksMTExMS42MzYwNjc3MDgzMzMzLDUyNS40NjQ2MzgxNDQxNzYxTDExMjYuOTI5Njg3NSw1MzMuMDg1NjkwNzczMDExNCI+PC9wYXRoPjxwYXRoIG1hcmtlci1lbmQ9InVybCgjZmxvd2NoYXJ0LXBvaW50RW5kKSIgc3R5bGU9ImZpbGw6bm9uZTsiIGNsYXNzPSJlZGdlLXRoaWNrbmVzcy1ub3JtYWwgZWRnZS1wYXR0ZXJuLXNvbGlkIGZsb3djaGFydC1saW5rIExTLWxhbWJkYSBMRS1kYl9hcGkiIGlkPSJMLWxhbWJkYS1kYl9hcGktMCIgZD0iTTEwMTguMTk1MzEyNSwzMTguNzc2NDYyODAxNzE0NkwxMDUzLjQzNjE5NzkxNjY2NjcsMzI0Ljc0MDgwMjMzNDc2MjJDMTA4OC42NzcwODMzMzMzMzMzLDMzMC43MDUxNDE4Njc4MDk3NCwxMTU5LjE1ODg1NDE2NjY2NjcsMzQyLjYzMzgyMDkzMzkwNDksMTE5NC4zOTk3Mzk1ODMzMzMzLDM1Ni4wOTAzNDc5NjY5NTI1QzEyMjkuNjQwNjI1LDM2OS41NDY4NzUsMTIyOS42NDA2MjUsMzg0LjUzMTI1LDEyMjkuNjQwNjI1LDM5Mi4wMjM0Mzc1TDEyMjkuNjQwNjI1LDM5OS41MTU2MjUiPjwvcGF0aD48cGF0aCBtYXJrZXItZW5kPSJ1cmwoI2Zsb3djaGFydC1wb2ludEVuZCkiIHN0eWxlPSJmaWxsOm5vbmU7IiBjbGFzcz0iZWRnZS10aGlja25lc3Mtbm9ybWFsIGVkZ2UtcGF0dGVybi1zb2xpZCBmbG93Y2hhcnQtbGluayBMUy1kYl9hcGkgTEUtZGF0YWJhc2UiIGlkPSJMLWRiX2FwaS1kYXRhYmFzZS0wIiBkPSJNMTIyOS42NDA2MjUsNDMzLjEwOTM3NUwxMjI5LjY0MDYyNSw0NDIuMTUxMDQxNjY2NjY2N0MxMjI5LjY0MDYyNSw0NTEuMTkyNzA4MzMzMzMzMywxMjI5LjY0MDYyNSw0NjkuMjc2MDQxNjY2NjY2NywxMjI0LjIxMzE4OTg2NzEwNyw0ODQuNTczMjExOTU2MjYyNDdDMTIxOC43ODU3NTQ3MzQyMTQ0LDQ5OS44NzAzODIyNDU4NTgzLDEyMDcuOTMwODg0NDY4NDI4NSw1MTIuMzgxMzg5NDkxNzE2NiwxMjAyLjUwMzQ0OTMzNTUzNTgsNTE4LjYzNjg5MzExNDY0NThMMTE5Ny4wNzYwMTQyMDI2NDMsNTI0Ljg5MjM5NjczNzU3NDkiPjwvcGF0aD48cGF0aCBtYXJrZXItZW5kPSJ1cmwoI2Zsb3djaGFydC1wb2ludEVuZCkiIHN0eWxlPSJmaWxsOm5vbmU7IiBjbGFzcz0iZWRnZS10aGlja25lc3Mtbm9ybWFsIGVkZ2UtcGF0dGVybi1zb2xpZCBmbG93Y2hhcnQtbGluayBMUy1nYXRld2F5IExFLWFtcGxpZnkiIGlkPSJMLWdhdGV3YXktYW1wbGlmeS0wIiBkPSJNNzY1LjA2NjQwNjI1LDIzNC43OTc4NTQ4NTQwNzUxOEw4MjEuMzk3Nzg2NDU4MzMzNCwyNDAuODI2MzM3Mzc4Mzk2Qzg3Ny43MjkxNjY2NjY2NjY2LDI0Ni44NTQ4MTk5MDI3MTY4LDk5MC4zOTE5MjcwODMzMzM0LDI1OC45MTE3ODQ5NTEzNTg0LDEwNDYuNzIzMzA3MjkxNjY2NywyNjkuMTA2OTM0MTQyMzQ1OUMxMTAzLjA1NDY4NzUsMjc5LjMwMjA4MzMzMzMzMzMsMTEwMy4wNTQ2ODc1LDI4Ny42MzU0MTY2NjY2NjY3LDExMDMuMDU0Njg3NSwyOTEuODAyMDgzMzMzMzMzM0wxMTAzLjA1NDY4NzUsMjk1Ljk2ODc1Ij48L3BhdGg+PHBhdGggbWFya2VyLWVuZD0idXJsKCNmbG93Y2hhcnQtcG9pbnRFbmQpIiBzdHlsZT0iZmlsbDpub25lOyIgY2xhc3M9ImVkZ2UtdGhpY2tuZXNzLW5vcm1hbCBlZGdlLXBhdHRlcm4tc29saWQgZmxvd2NoYXJ0LWxpbmsgTFMtZ2F0ZXdheSBMRS1vdGhlciIgaWQ9IkwtZ2F0ZXdheS1vdGhlci0wIiBkPSJNNzY1LjA2NjQwNjI1LDIzMy4yODUwMjcxMTQ2OTk4TDg0NS4zMzkxOTI3MDgzMzM0LDIzOS41NjU2NDc1OTU1ODMyQzkyNS42MTE5NzkxNjY2NjY2LDI0NS44NDYyNjgwNzY0NjY1NCwxMDg2LjE1NzU1MjA4MzMzMzMsMjU4LjQwNzUwOTAzODIzMzMsMTE2Ni40MzAzMzg1NDE2NjY3LDI2OC44NTQ3OTYxODU3ODMzQzEyNDYuNzAzMTI1LDI3OS4zMDIwODMzMzMzMzMzLDEyNDYuNzAzMTI1LDI4Ny42MzU0MTY2NjY2NjY3LDEyNDYuNzAzMTI1LDI5MS44MDIwODMzMzMzMzMzTDEyNDYuNzAzMTI1LDI5NS45Njg3NSI+PC9wYXRoPjxwYXRoIG1hcmtlci1lbmQ9InVybCgjZmxvd2NoYXJ0LXBvaW50RW5kKSIgc3R5bGU9ImZpbGw6bm9uZTsiIGNsYXNzPSJlZGdlLXRoaWNrbmVzcy1ub3JtYWwgZWRnZS1wYXR0ZXJuLXNvbGlkIGZsb3djaGFydC1saW5rIExTLWRhdGFiYXNlIExFLXNpbXVsYXRpb24iIGlkPSJMLWRhdGFiYXNlLXNpbXVsYXRpb24tMCIgZD0iTTExMzAuNjE4NzU2MzMwNzE3Niw1NzguOTMyMDY2NzgwMTM2NkwxMTI1Ljc4MDYwNDIzMzkzMTQsNTg0LjA0ODMxNDc3NDg2OTdDMTEyMC45NDI0NTIxMzcxNDUsNTg5LjE2NDU2Mjc2OTYwMjgsMTExMS4yNjYxNDc5NDM1NzI2LDU5OS4zOTcwNTg3NTkwNjksMTEwNi40Mjc5OTU4NDY3ODYyLDYwOC42Nzk5NzM0MjA0Njg3QzExMDEuNTg5ODQzNzUsNjE3Ljk2Mjg4ODA4MTg2ODUsMTEwMS41ODk4NDM3NSw2MjYuMjk2MjIxNDE1MjAxOCwxMTAxLjU4OTg0Mzc1LDYzMC40NjI4ODgwODE4Njg1TDExMDEuNTg5ODQzNzUsNjM0LjYyOTU1NDc0ODUzNTIiPjwvcGF0aD48cGF0aCBtYXJrZXItZW5kPSJ1cmwoI2Zsb3djaGFydC1wb2ludEVuZCkiIHN0eWxlPSJmaWxsOm5vbmU7IiBjbGFzcz0iZWRnZS10aGlja25lc3Mtbm9ybWFsIGVkZ2UtcGF0dGVybi1zb2xpZCBmbG93Y2hhcnQtbGluayBMUy1zaW11bGF0aW9uIExFLXJlc3VsdHMiIGlkPSJMLXNpbXVsYXRpb24tcmVzdWx0cy0wIiBkPSJNMTEwMS41ODk4NDM3NSw2NjguMjIzMzA0NzQ4NTM1MkwxMTAxLjU4OTg0Mzc1LDY3Mi4zODk5NzE0MTUyMDE4QzExMDEuNTg5ODQzNzUsNjc2LjU1NjYzODA4MTg2ODUsMTEwMS41ODk4NDM3NSw2ODQuODg5OTcxNDE1MjAxOCwxMTA3LjAzODQxMTQ1ODMzMzMsNjk1LjAzOTg2ODU1MzM2MDlDMTExMi40ODY5NzkxNjY2NjY3LDcwNS4xODk3NjU2OTE1MTk3LDExMjMuMzg0MTE0NTgzMzMzMyw3MTcuMTU2MjI2NjM0NTA0MiwxMTI4LjgzMjY4MjI5MTY2NjcsNzIzLjEzOTQ1NzEwNTk5NjVMMTEzNC4yODEyNSw3MjkuMTIyNjg3NTc3NDg4OCI+PC9wYXRoPjxwYXRoIG1hcmtlci1lbmQ9InVybCgjZmxvd2NoYXJ0LXBvaW50RW5kKSIgc3R5bGU9ImZpbGw6bm9uZTsiIGNsYXNzPSJlZGdlLXRoaWNrbmVzcy1ub3JtYWwgZWRnZS1wYXR0ZXJuLXNvbGlkIGZsb3djaGFydC1saW5rIExTLWRhdGFiYXNlIExFLWFuYWx5c2lzIiBpZD0iTC1kYXRhYmFzZS1hbmFseXNpcy0wIiBkPSJNMTIwMy43NDA2MTg2NjkyODI0LDU3OC45MzIwNjY3ODAxMzY2TDEyMDguNTc4NzcwNzY2MDY4Niw1ODQuMDQ4MzE0Nzc0ODY5N0MxMjEzLjQxNjkyMjg2Mjg1NSw1ODkuMTY0NTYyNzY5NjAyOCwxMjIzLjA5MzIyNzA1NjQyNzQsNTk5LjM5NzA1ODc1OTA2OSwxMjI3LjkzMTM3OTE1MzIxMzgsNjA4LjY3OTk3MzQyMDQ2ODdDMTIzMi43Njk1MzEyNSw2MTcuOTYyODg4MDgxODY4NSwxMjMyLjc2OTUzMTI1LDYyNi4yOTYyMjE0MTUyMDE4LDEyMzIuNzY5NTMxMjUsNjMwLjQ2Mjg4ODA4MTg2ODVMMTIzMi43Njk1MzEyNSw2MzQuNjI5NTU0NzQ4NTM1MiI+PC9wYXRoPjxwYXRoIG1hcmtlci1lbmQ9InVybCgjZmxvd2NoYXJ0LXBvaW50RW5kKSIgc3R5bGU9ImZpbGw6bm9uZTsiIGNsYXNzPSJlZGdlLXRoaWNrbmVzcy1ub3JtYWwgZWRnZS1wYXR0ZXJuLXNvbGlkIGZsb3djaGFydC1saW5rIExTLWFuYWx5c2lzIExFLXJlc3VsdHMiIGlkPSJMLWFuYWx5c2lzLXJlc3VsdHMtMCIgZD0iTTEyMzIuNzY5NTMxMjUsNjY4LjIyMzMwNDc0ODUzNTJMMTIzMi43Njk1MzEyNSw2NzIuMzg5OTcxNDE1MjAxOEMxMjMyLjc2OTUzMTI1LDY3Ni41NTY2MzgwODE4Njg1LDEyMzIuNzY5NTMxMjUsNjg0Ljg4OTk3MTQxNTIwMTgsMTIyNy4zMjA5NjM1NDE2NjY3LDY5NS4wMzk4Njg1NTMzNjA5QzEyMjEuODcyMzk1ODMzMzMzMyw3MDUuMTg5NzY1NjkxNTE5NywxMjEwLjk3NTI2MDQxNjY2NjcsNzE3LjE1NjIyNjYzNDUwNDIsMTIwNS41MjY2OTI3MDgzMzMzLDcyMy4xMzk0NTcxMDU5OTY1TDEyMDAuMDc4MTI1LDcyOS4xMjI2ODc1Nzc0ODg4Ij48L3BhdGg+PC9nPjxnIGNsYXNzPSJlZGdlTGFiZWxzIj48ZyB0cmFuc2Zvcm09InRyYW5zbGF0ZSgzNjcuNzE4NzUsIDc1Ljg5MDYyNSkiIGNsYXNzPSJlZGdlTGFiZWwiPjxnIHRyYW5zZm9ybT0idHJhbnNsYXRlKC0zMi44NjcxODc1LCAtOS4yOTY4NzUpIiBjbGFzcz0ibGFiZWwiPjxyZWN0IGhlaWdodD0iMTguNDUzMTI1IiB3aWR0aD0iNjUuMjUiIHJ5PSIwIiByeD0iMCI+PC9yZWN0Pjx0ZXh0IHN0eWxlPSIiPjx0c3BhbiBjbGFzcz0icm93IiB4PSIwIiBkeT0iMWVtIiB4bWw6c3BhY2U9InByZXNlcnZlIj5PcGVuQURSPC90c3Bhbj48L3RleHQ+PC9nPjwvZz48ZyB0cmFuc2Zvcm09InRyYW5zbGF0ZSgzNjcuNzE4NzUsIDE3OC4wNzgxMjUpIiBjbGFzcz0iZWRnZUxhYmVsIj48ZyB0cmFuc2Zvcm09InRyYW5zbGF0ZSgtMTcuNDM3NSwgLTkuMjk2ODc1KSIgY2xhc3M9ImxhYmVsIj48cmVjdCBoZWlnaHQ9IjE4LjQ1MzEyNSIgd2lkdGg9IjM0LjYwOTM3NSIgcnk9IjAiIHJ4PSIwIj48L3JlY3Q+PHRleHQgc3R5bGU9IiI+PHRzcGFuIGNsYXNzPSJyb3ciIHg9IjAiIGR5PSIxZW0iIHhtbDpzcGFjZT0icHJlc2VydmUiPlJFU1Q8L3RzcGFuPjwvdGV4dD48L2c+PC9nPjxnIHRyYW5zZm9ybT0idHJhbnNsYXRlKDQ4OC41NDY4NzUsIDc1Ljg5MDYyNSkiIGNsYXNzPSJlZGdlTGFiZWwiPjxnIHRyYW5zZm9ybT0idHJhbnNsYXRlKC0yMi44MzU5Mzc1LCAtOS4yOTY4NzUpIiBjbGFzcz0ibGFiZWwiPjxyZWN0IGhlaWdodD0iMTguNDUzMTI1IiB3aWR0aD0iNDUuMzI4MTI1IiByeT0iMCIgcng9IjAiPjwvcmVjdD48dGV4dCBzdHlsZT0iIj48dHNwYW4gY2xhc3M9InJvdyIgeD0iMCIgZHk9IjFlbSIgeG1sOnNwYWNlPSJwcmVzZXJ2ZSI+SFRUUFM8L3RzcGFuPjwvdGV4dD48L2c+PC9nPjxnIHRyYW5zZm9ybT0idHJhbnNsYXRlKDQ4OC41NDY4NzUsIDE3OC4wNzgxMjUpIiBjbGFzcz0iZWRnZUxhYmVsIj48ZyB0cmFuc2Zvcm09InRyYW5zbGF0ZSgtMTcuNDM3NSwgLTkuMjk2ODc1KSIgY2xhc3M9ImxhYmVsIj48cmVjdCBoZWlnaHQ9IjE4LjQ1MzEyNSIgd2lkdGg9IjM0LjYwOTM3NSIgcnk9IjAiIHJ4PSIwIj48L3JlY3Q+PHRleHQgc3R5bGU9IiI+PHRzcGFuIGNsYXNzPSJyb3ciIHg9IjAiIGR5PSIxZW0iIHhtbDpzcGFjZT0icHJlc2VydmUiPlJFU1Q8L3RzcGFuPjwvdGV4dD48L2c+PC9nPjxnIHRyYW5zZm9ybT0idHJhbnNsYXRlKDYzNy43NSwgNzUuODkwNjI1KSIgY2xhc3M9ImVkZ2VMYWJlbCI+PGcgdHJhbnNmb3JtPSJ0cmFuc2xhdGUoLTIyLjgzNTkzNzUsIC05LjI5Njg3NSkiIGNsYXNzPSJsYWJlbCI+PHJlY3QgaGVpZ2h0PSIxOC40NTMxMjUiIHdpZHRoPSI0NS4zMjgxMjUiIHJ5PSIwIiByeD0iMCI+PC9yZWN0Pjx0ZXh0IHN0eWxlPSIiPjx0c3BhbiBjbGFzcz0icm93IiB4PSIwIiBkeT0iMWVtIiB4bWw6c3BhY2U9InByZXNlcnZlIj5IVFRQUzwvdHNwYW4+PC90ZXh0PjwvZz48L2c+PGcgdHJhbnNmb3JtPSJ0cmFuc2xhdGUoNjM3Ljc1LCAxNzguMDc4MTI1KSIgY2xhc3M9ImVkZ2VMYWJlbCI+PGcgdHJhbnNmb3JtPSJ0cmFuc2xhdGUoLTE3LjQzNzUsIC05LjI5Njg3NSkiIGNsYXNzPSJsYWJlbCI+PHJlY3QgaGVpZ2h0PSIxOC40NTMxMjUiIHdpZHRoPSIzNC42MDkzNzUiIHJ5PSIwIiByeD0iMCI+PC9yZWN0Pjx0ZXh0IHN0eWxlPSIiPjx0c3BhbiBjbGFzcz0icm93IiB4PSIwIiBkeT0iMWVtIiB4bWw6c3BhY2U9InByZXNlcnZlIj5SRVNUPC90c3Bhbj48L3RleHQ+PC9nPjwvZz48ZyB0cmFuc2Zvcm09InRyYW5zbGF0ZSg3OTMuMjUsIDc1Ljg5MDYyNSkiIGNsYXNzPSJlZGdlTGFiZWwiPjxnIHRyYW5zZm9ybT0idHJhbnNsYXRlKC0yMi44MzU5Mzc1LCAtOS4yOTY4NzUpIiBjbGFzcz0ibGFiZWwiPjxyZWN0IGhlaWdodD0iMTguNDUzMTI1IiB3aWR0aD0iNDUuMzI4MTI1IiByeT0iMCIgcng9IjAiPjwvcmVjdD48dGV4dCBzdHlsZT0iIj48dHNwYW4gY2xhc3M9InJvdyIgeD0iMCIgZHk9IjFlbSIgeG1sOnNwYWNlPSJwcmVzZXJ2ZSI+SFRUUFM8L3RzcGFuPjwvdGV4dD48L2c+PC9nPjxnIHRyYW5zZm9ybT0idHJhbnNsYXRlKDc5My4yNSwgMTc4LjA3ODEyNSkiIGNsYXNzPSJlZGdlTGFiZWwiPjxnIHRyYW5zZm9ybT0idHJhbnNsYXRlKC0xNy40Mzc1LCAtOS4yOTY4NzUpIiBjbGFzcz0ibGFiZWwiPjxyZWN0IGhlaWdodD0iMTguNDUzMTI1IiB3aWR0aD0iMzQuNjA5Mzc1IiByeT0iMCIgcng9IjAiPjwvcmVjdD48dGV4dCBzdHlsZT0iIj48dHNwYW4gY2xhc3M9InJvdyIgeD0iMCIgZHk9IjFlbSIgeG1sOnNwYWNlPSJwcmVzZXJ2ZSI+UkVTVDwvdHNwYW4+PC90ZXh0PjwvZz48L2c+PGcgdHJhbnNmb3JtPSJ0cmFuc2xhdGUoOTQ0LjYzMjgxMjUsIDc1Ljg5MDYyNSkiIGNsYXNzPSJlZGdlTGFiZWwiPjxnIHRyYW5zZm9ybT0idHJhbnNsYXRlKC0yMi44MzU5Mzc1LCAtOS4yOTY4NzUpIiBjbGFzcz0ibGFiZWwiPjxyZWN0IGhlaWdodD0iMTguNDUzMTI1IiB3aWR0aD0iNDUuMzI4MTI1IiByeT0iMCIgcng9IjAiPjwvcmVjdD48dGV4dCBzdHlsZT0iIj48dHNwYW4gY2xhc3M9InJvdyIgeD0iMCIgZHk9IjFlbSIgeG1sOnNwYWNlPSJwcmVzZXJ2ZSI+SFRUUFM8L3RzcGFuPjwvdGV4dD48L2c+PC9nPjxnIHRyYW5zZm9ybT0idHJhbnNsYXRlKDk0NC42MzI4MTI1LCAxNzguMDc4MTI1KSIgY2xhc3M9ImVkZ2VMYWJlbCI+PGcgdHJhbnNmb3JtPSJ0cmFuc2xhdGUoLTE3LjQzNzUsIC05LjI5Njg3NSkiIGNsYXNzPSJsYWJlbCI+PHJlY3QgaGVpZ2h0PSIxOC40NTMxMjUiIHdpZHRoPSIzNC42MDkzNzUiIHJ5PSIwIiByeD0iMCI+PC9yZWN0Pjx0ZXh0IHN0eWxlPSIiPjx0c3BhbiBjbGFzcz0icm93IiB4PSIwIiBkeT0iMWVtIiB4bWw6c3BhY2U9InByZXNlcnZlIj5SRVNUPC90c3Bhbj48L3RleHQ+PC9nPjwvZz48ZyB0cmFuc2Zvcm09InRyYW5zbGF0ZSgxMTE0Ljg2NzE4NzUsIDc1Ljg5MDYyNSkiIGNsYXNzPSJlZGdlTGFiZWwiPjxnIHRyYW5zZm9ybT0idHJhbnNsYXRlKC0yMi44MzU5Mzc1LCAtOS4yOTY4NzUpIiBjbGFzcz0ibGFiZWwiPjxyZWN0IGhlaWdodD0iMTguNDUzMTI1IiB3aWR0aD0iNDUuMzI4MTI1IiByeT0iMCIgcng9IjAiPjwvcmVjdD48dGV4dCBzdHlsZT0iIj48dHNwYW4gY2xhc3M9InJvdyIgeD0iMCIgZHk9IjFlbSIgeG1sOnNwYWNlPSJwcmVzZXJ2ZSI+SFRUUFM8L3RzcGFuPjwvdGV4dD48L2c+PC9nPjxnIHRyYW5zZm9ybT0idHJhbnNsYXRlKDExMTQuODY3MTg3NSwgMTc4LjA3ODEyNSkiIGNsYXNzPSJlZGdlTGFiZWwiPjxnIHRyYW5zZm9ybT0idHJhbnNsYXRlKC0xNy40Mzc1LCAtOS4yOTY4NzUpIiBjbGFzcz0ibGFiZWwiPjxyZWN0IGhlaWdodD0iMTguNDUzMTI1IiB3aWR0aD0iMzQuNjA5Mzc1IiByeT0iMCIgcng9IjAiPjwvcmVjdD48dGV4dCBzdHlsZT0iIj48dHNwYW4gY2xhc3M9InJvdyIgeD0iMCIgZHk9IjFlbSIgeG1sOnNwYWNlPSJwcmVzZXJ2ZSI+UkVTVDwvdHNwYW4+PC90ZXh0PjwvZz48L2c+PGcgY2xhc3M9ImVkZ2VMYWJlbCI+PGcgdHJhbnNmb3JtPSJ0cmFuc2xhdGUoMCwgMCkiIGNsYXNzPSJsYWJlbCI+PHJlY3QgaGVpZ2h0PSIwIiB3aWR0aD0iMCIgcnk9IjAiIHJ4PSIwIj48L3JlY3Q+PHRleHQgc3R5bGU9IiI+PHRzcGFuIGNsYXNzPSJyb3ciIHg9IjAiIGR5PSIxZW0iIHhtbDpzcGFjZT0icHJlc2VydmUiPjwvdHNwYW4+PC90ZXh0PjwvZz48L2c+PGcgY2xhc3M9ImVkZ2VMYWJlbCI+PGcgdHJhbnNmb3JtPSJ0cmFuc2xhdGUoMCwgMCkiIGNsYXNzPSJsYWJlbCI+PHJlY3QgaGVpZ2h0PSIwIiB3aWR0aD0iMCIgcnk9IjAiIHJ4PSIwIj48L3JlY3Q+PHRleHQgc3R5bGU9IiI+PHRzcGFuIGNsYXNzPSJyb3ciIHg9IjAiIGR5PSIxZW0iIHhtbDpzcGFjZT0icHJlc2VydmUiPjwvdHNwYW4+PC90ZXh0PjwvZz48L2c+PGcgY2xhc3M9ImVkZ2VMYWJlbCI+PGcgdHJhbnNmb3JtPSJ0cmFuc2xhdGUoMCwgMCkiIGNsYXNzPSJsYWJlbCI+PHJlY3QgaGVpZ2h0PSIwIiB3aWR0aD0iMCIgcnk9IjAiIHJ4PSIwIj48L3JlY3Q+PHRleHQgc3R5bGU9IiI+PHRzcGFuIGNsYXNzPSJyb3ciIHg9IjAiIGR5PSIxZW0iIHhtbDpzcGFjZT0icHJlc2VydmUiPjwvdHNwYW4+PC90ZXh0PjwvZz48L2c+PGcgY2xhc3M9ImVkZ2VMYWJlbCI+PGcgdHJhbnNmb3JtPSJ0cmFuc2xhdGUoMCwgMCkiIGNsYXNzPSJsYWJlbCI+PHJlY3QgaGVpZ2h0PSIwIiB3aWR0aD0iMCIgcnk9IjAiIHJ4PSIwIj48L3JlY3Q+PHRleHQgc3R5bGU9IiI+PHRzcGFuIGNsYXNzPSJyb3ciIHg9IjAiIGR5PSIxZW0iIHhtbDpzcGFjZT0icHJlc2VydmUiPjwvdHNwYW4+PC90ZXh0PjwvZz48L2c+PGcgY2xhc3M9ImVkZ2VMYWJlbCI+PGcgdHJhbnNmb3JtPSJ0cmFuc2xhdGUoMCwgMCkiIGNsYXNzPSJsYWJlbCI+PHJlY3QgaGVpZ2h0PSIwIiB3aWR0aD0iMCIgcnk9IjAiIHJ4PSIwIj48L3JlY3Q+PHRleHQgc3R5bGU9IiI+PHRzcGFuIGNsYXNzPSJyb3ciIHg9IjAiIGR5PSIxZW0iIHhtbDpzcGFjZT0icHJlc2VydmUiPjwvdHNwYW4+PC90ZXh0PjwvZz48L2c+PGcgY2xhc3M9ImVkZ2VMYWJlbCI+PGcgdHJhbnNmb3JtPSJ0cmFuc2xhdGUoMCwgMCkiIGNsYXNzPSJsYWJlbCI+PHJlY3QgaGVpZ2h0PSIwIiB3aWR0aD0iMCIgcnk9IjAiIHJ4PSIwIj48L3JlY3Q+PHRleHQgc3R5bGU9IiI+PHRzcGFuIGNsYXNzPSJyb3ciIHg9IjAiIGR5PSIxZW0iIHhtbDpzcGFjZT0icHJlc2VydmUiPjwvdHNwYW4+PC90ZXh0PjwvZz48L2c+PGcgY2xhc3M9ImVkZ2VMYWJlbCI+PGcgdHJhbnNmb3JtPSJ0cmFuc2xhdGUoMCwgMCkiIGNsYXNzPSJsYWJlbCI+PHJlY3QgaGVpZ2h0PSIwIiB3aWR0aD0iMCIgcnk9IjAiIHJ4PSIwIj48L3JlY3Q+PHRleHQgc3R5bGU9IiI+PHRzcGFuIGNsYXNzPSJyb3ciIHg9IjAiIGR5PSIxZW0iIHhtbDpzcGFjZT0icHJlc2VydmUiPjwvdHNwYW4+PC90ZXh0PjwvZz48L2c+PGcgY2xhc3M9ImVkZ2VMYWJlbCI+PGcgdHJhbnNmb3JtPSJ0cmFuc2xhdGUoMCwgMCkiIGNsYXNzPSJsYWJlbCI+PHJlY3QgaGVpZ2h0PSIwIiB3aWR0aD0iMCIgcnk9IjAiIHJ4PSIwIj48L3JlY3Q+PHRleHQgc3R5bGU9IiI+PHRzcGFuIGNsYXNzPSJyb3ciIHg9IjAiIGR5PSIxZW0iIHhtbDpzcGFjZT0icHJlc2VydmUiPjwvdHNwYW4+PC90ZXh0PjwvZz48L2c+PGcgY2xhc3M9ImVkZ2VMYWJlbCI+PGcgdHJhbnNmb3JtPSJ0cmFuc2xhdGUoMCwgMCkiIGNsYXNzPSJsYWJlbCI+PHJlY3QgaGVpZ2h0PSIwIiB3aWR0aD0iMCIgcnk9IjAiIHJ4PSIwIj48L3JlY3Q+PHRleHQgc3R5bGU9IiI+PHRzcGFuIGNsYXNzPSJyb3ciIHg9IjAiIGR5PSIxZW0iIHhtbDpzcGFjZT0icHJlc2VydmUiPjwvdHNwYW4+PC90ZXh0PjwvZz48L2c+PGcgY2xhc3M9ImVkZ2VMYWJlbCI+PGcgdHJhbnNmb3JtPSJ0cmFuc2xhdGUoMCwgMCkiIGNsYXNzPSJsYWJlbCI+PHJlY3QgaGVpZ2h0PSIwIiB3aWR0aD0iMCIgcnk9IjAiIHJ4PSIwIj48L3JlY3Q+PHRleHQgc3R5bGU9IiI+PHRzcGFuIGNsYXNzPSJyb3ciIHg9IjAiIGR5PSIxZW0iIHhtbDpzcGFjZT0icHJlc2VydmUiPjwvdHNwYW4+PC90ZXh0PjwvZz48L2c+PGcgY2xhc3M9ImVkZ2VMYWJlbCI+PGcgdHJhbnNmb3JtPSJ0cmFuc2xhdGUoMCwgMCkiIGNsYXNzPSJsYWJlbCI+PHJlY3QgaGVpZ2h0PSIwIiB3aWR0aD0iMCIgcnk9IjAiIHJ4PSIwIj48L3JlY3Q+PHRleHQgc3R5bGU9IiI+PHRzcGFuIGNsYXNzPSJyb3ciIHg9IjAiIGR5PSIxZW0iIHhtbDpzcGFjZT0icHJlc2VydmUiPjwvdHNwYW4+PC90ZXh0PjwvZz48L2c+PGcgY2xhc3M9ImVkZ2VMYWJlbCI+PGcgdHJhbnNmb3JtPSJ0cmFuc2xhdGUoMCwgMCkiIGNsYXNzPSJsYWJlbCI+PHJlY3QgaGVpZ2h0PSIwIiB3aWR0aD0iMCIgcnk9IjAiIHJ4PSIwIj48L3JlY3Q+PHRleHQgc3R5bGU9IiI+PHRzcGFuIGNsYXNzPSJyb3ciIHg9IjAiIGR5PSIxZW0iIHhtbDpzcGFjZT0icHJlc2VydmUiPjwvdHNwYW4+PC90ZXh0PjwvZz48L2c+PGcgY2xhc3M9ImVkZ2VMYWJlbCI+PGcgdHJhbnNmb3JtPSJ0cmFuc2xhdGUoMCwgMCkiIGNsYXNzPSJsYWJlbCI+PHJlY3QgaGVpZ2h0PSIwIiB3aWR0aD0iMCIgcnk9IjAiIHJ4PSIwIj48L3JlY3Q+PHRleHQgc3R5bGU9IiI+PHRzcGFuIGNsYXNzPSJyb3ciIHg9IjAiIGR5PSIxZW0iIHhtbDpzcGFjZT0icHJlc2VydmUiPjwvdHNwYW4+PC90ZXh0PjwvZz48L2c+PGcgY2xhc3M9ImVkZ2VMYWJlbCI+PGcgdHJhbnNmb3JtPSJ0cmFuc2xhdGUoMCwgMCkiIGNsYXNzPSJsYWJlbCI+PHJlY3QgaGVpZ2h0PSIwIiB3aWR0aD0iMCIgcnk9IjAiIHJ4PSIwIj48L3JlY3Q+PHRleHQgc3R5bGU9IiI+PHRzcGFuIGNsYXNzPSJyb3ciIHg9IjAiIGR5PSIxZW0iIHhtbDpzcGFjZT0icHJlc2VydmUiPjwvdHNwYW4+PC90ZXh0PjwvZz48L2c+PGcgdHJhbnNmb3JtPSJ0cmFuc2xhdGUoMTAzNS4xNjc5Njg3NSwgNDg3LjM1OTM3NSkiIGNsYXNzPSJlZGdlTGFiZWwiPjxnIHRyYW5zZm9ybT0idHJhbnNsYXRlKC0xMS40MDYyNSwgLTkuMjk2ODc1KSIgY2xhc3M9ImxhYmVsIj48cmVjdCBoZWlnaHQ9IjE4LjQ1MzEyNSIgd2lkdGg9IjIyLjY1NjI1IiByeT0iMCIgcng9IjAiPjwvcmVjdD48dGV4dCBzdHlsZT0iIj48dHNwYW4gY2xhc3M9InJvdyIgeD0iMCIgZHk9IjFlbSIgeG1sOnNwYWNlPSJwcmVzZXJ2ZSI+QVBJPC90c3Bhbj48L3RleHQ+PC9nPjwvZz48ZyBjbGFzcz0iZWRnZUxhYmVsIj48ZyB0cmFuc2Zvcm09InRyYW5zbGF0ZSgwLCAwKSIgY2xhc3M9ImxhYmVsIj48cmVjdCBoZWlnaHQ9IjAiIHdpZHRoPSIwIiByeT0iMCIgcng9IjAiPjwvcmVjdD48dGV4dCBzdHlsZT0iIj48dHNwYW4gY2xhc3M9InJvdyIgeD0iMCIgZHk9IjFlbSIgeG1sOnNwYWNlPSJwcmVzZXJ2ZSI+PC90c3Bhbj48L3RleHQ+PC9nPjwvZz48ZyB0cmFuc2Zvcm09InRyYW5zbGF0ZSgxMjI5LjY0MDYyNSwgNDg3LjM1OTM3NSkiIGNsYXNzPSJlZGdlTGFiZWwiPjxnIHRyYW5zZm9ybT0idHJhbnNsYXRlKC0xMS40MDYyNSwgLTkuMjk2ODc1KSIgY2xhc3M9ImxhYmVsIj48cmVjdCBoZWlnaHQ9IjE4LjQ1MzEyNSIgd2lkdGg9IjIyLjY1NjI1IiByeT0iMCIgcng9IjAiPjwvcmVjdD48dGV4dCBzdHlsZT0iIj48dHNwYW4gY2xhc3M9InJvdyIgeD0iMCIgZHk9IjFlbSIgeG1sOnNwYWNlPSJwcmVzZXJ2ZSI+QVBJPC90c3Bhbj48L3RleHQ+PC9nPjwvZz48ZyBjbGFzcz0iZWRnZUxhYmVsIj48ZyB0cmFuc2Zvcm09InRyYW5zbGF0ZSgwLCAwKSIgY2xhc3M9ImxhYmVsIj48cmVjdCBoZWlnaHQ9IjAiIHdpZHRoPSIwIiByeT0iMCIgcng9IjAiPjwvcmVjdD48dGV4dCBzdHlsZT0iIj48dHNwYW4gY2xhc3M9InJvdyIgeD0iMCIgZHk9IjFlbSIgeG1sOnNwYWNlPSJwcmVzZXJ2ZSI+PC90c3Bhbj48L3RleHQ+PC9nPjwvZz48ZyBjbGFzcz0iZWRnZUxhYmVsIj48ZyB0cmFuc2Zvcm09InRyYW5zbGF0ZSgwLCAwKSIgY2xhc3M9ImxhYmVsIj48cmVjdCBoZWlnaHQ9IjAiIHdpZHRoPSIwIiByeT0iMCIgcng9IjAiPjwvcmVjdD48dGV4dCBzdHlsZT0iIj48dHNwYW4gY2xhc3M9InJvdyIgeD0iMCIgZHk9IjFlbSIgeG1sOnNwYWNlPSJwcmVzZXJ2ZSI+PC90c3Bhbj48L3RleHQ+PC9nPjwvZz48ZyBjbGFzcz0iZWRnZUxhYmVsIj48ZyB0cmFuc2Zvcm09InRyYW5zbGF0ZSgwLCAwKSIgY2xhc3M9ImxhYmVsIj48cmVjdCBoZWlnaHQ9IjAiIHdpZHRoPSIwIiByeT0iMCIgcng9IjAiPjwvcmVjdD48dGV4dCBzdHlsZT0iIj48dHNwYW4gY2xhc3M9InJvdyIgeD0iMCIgZHk9IjFlbSIgeG1sOnNwYWNlPSJwcmVzZXJ2ZSI+PC90c3Bhbj48L3RleHQ+PC9nPjwvZz48ZyBjbGFzcz0iZWRnZUxhYmVsIj48ZyB0cmFuc2Zvcm09InRyYW5zbGF0ZSgwLCAwKSIgY2xhc3M9ImxhYmVsIj48cmVjdCBoZWlnaHQ9IjAiIHdpZHRoPSIwIiByeT0iMCIgcng9IjAiPjwvcmVjdD48dGV4dCBzdHlsZT0iIj48dHNwYW4gY2xhc3M9InJvdyIgeD0iMCIgZHk9IjFlbSIgeG1sOnNwYWNlPSJwcmVzZXJ2ZSI+PC90c3Bhbj48L3RleHQ+PC9nPjwvZz48ZyBjbGFzcz0iZWRnZUxhYmVsIj48ZyB0cmFuc2Zvcm09InRyYW5zbGF0ZSgwLCAwKSIgY2xhc3M9ImxhYmVsIj48cmVjdCBoZWlnaHQ9IjAiIHdpZHRoPSIwIiByeT0iMCIgcng9IjAiPjwvcmVjdD48dGV4dCBzdHlsZT0iIj48dHNwYW4gY2xhc3M9InJvdyIgeD0iMCIgZHk9IjFlbSIgeG1sOnNwYWNlPSJwcmVzZXJ2ZSI+PC90c3Bhbj48L3RleHQ+PC9nPjwvZz48ZyBjbGFzcz0iZWRnZUxhYmVsIj48ZyB0cmFuc2Zvcm09InRyYW5zbGF0ZSgwLCAwKSIgY2xhc3M9ImxhYmVsIj48cmVjdCBoZWlnaHQ9IjAiIHdpZHRoPSIwIiByeT0iMCIgcng9IjAiPjwvcmVjdD48dGV4dCBzdHlsZT0iIj48dHNwYW4gY2xhc3M9InJvdyIgeD0iMCIgZHk9IjFlbSIgeG1sOnNwYWNlPSJwcmVzZXJ2ZSI+PC90c3Bhbj48L3RleHQ+PC9nPjwvZz48L2c+PGcgY2xhc3M9Im5vZGVzIj48ZyB0cmFuc2Zvcm09InRyYW5zbGF0ZSgzNjcuNzE4NzUsIDI0Ljc5Njg3NSkiIGlkPSJmbG93Y2hhcnQtZGV2aWNlcy02MyIgY2xhc3M9Im5vZGUgZGVmYXVsdCBkZWZhdWx0Ij48cmVjdCBoZWlnaHQ9IjMzLjU5Mzc1IiB3aWR0aD0iNzcuNDYwOTM3NSIgeT0iLTE2Ljc5Njg3NSIgeD0iLTM4LjczMDQ2ODc1IiByeT0iMTYuNzk2ODc1IiByeD0iMTYuNzk2ODc1IiBzdHlsZT0iIj48L3JlY3Q+PGcgdHJhbnNmb3JtPSJ0cmFuc2xhdGUoLTI3LjAzMTI1LCAtOS4yOTY4NzUpIiBzdHlsZT0iIiBjbGFzcz0ibGFiZWwiPjx0ZXh0IHN0eWxlPSIiPjx0c3BhbiBjbGFzcz0icm93IiB4PSIwIiBkeT0iMWVtIiB4bWw6c3BhY2U9InByZXNlcnZlIj5EZXZpY2VzPC90c3Bhbj48L3RleHQ+PC9nPjwvZz48YSB0cmFuc2Zvcm09InRyYW5zbGF0ZSgzNjcuNzE4NzUsIDEyNi45ODQzNzUpIiB4bGluazpocmVmPSJodHRwczovL2dpdGh1Yi5jb20vcG9zdHJvYWQtZW5lcmd5L2Rlc2lnbi9ibG9iL21haW4vZG9jcy9hZ2VudHMubWQiPjxnIGlkPSJmbG93Y2hhcnQtYWdlbnRzLTY0IiBjbGFzcz0ibm9kZSBkZWZhdWx0IGFjdGl2ZSBjbGlja2FibGUiPjxyZWN0IGhlaWdodD0iMzMuNTkzNzUiIHdpZHRoPSI2Mi43NjU2MjUiIHk9Ii0xNi43OTY4NzUiIHg9Ii0zMS4zODI4MTI1IiByeT0iMCIgcng9IjAiIHN0eWxlPSIiIGNsYXNzPSJiYXNpYyBsYWJlbC1jb250YWluZXIiPjwvcmVjdD48ZyB0cmFuc2Zvcm09InRyYW5zbGF0ZSgtMjMuODgyODEyNSwgLTkuMjk2ODc1KSIgc3R5bGU9IiIgY2xhc3M9ImxhYmVsIj48dGV4dCBzdHlsZT0iIj48dHNwYW4gY2xhc3M9InJvdyIgeD0iMCIgZHk9IjFlbSIgeG1sOnNwYWNlPSJwcmVzZXJ2ZSI+QWdlbnRzPC90c3Bhbj48L3RleHQ+PC9nPjwvZz48L2E+PGcgdHJhbnNmb3JtPSJ0cmFuc2xhdGUoNzEyLjQ5NjA5Mzc1LCAyMjkuMTcxODc1KSIgaWQ9ImZsb3djaGFydC1nYXRld2F5LTY2IiBjbGFzcz0ibm9kZSBkZWZhdWx0IGRlZmF1bHQiPjxyZWN0IGhlaWdodD0iMzMuNTkzNzUiIHdpZHRoPSIxMDUuMTQwNjI1IiB5PSItMTYuNzk2ODc1IiB4PSItNTIuNTcwMzEyNSIgcnk9IjAiIHJ4PSIwIiBzdHlsZT0iIiBjbGFzcz0iYmFzaWMgbGFiZWwtY29udGFpbmVyIj48L3JlY3Q+PGcgdHJhbnNmb3JtPSJ0cmFuc2xhdGUoLTQ1LjA3MDMxMjUsIC05LjI5Njg3NSkiIHN0eWxlPSIiIGNsYXNzPSJsYWJlbCI+PHRleHQgc3R5bGU9IiI+PHRzcGFuIGNsYXNzPSJyb3ciIHg9IjAiIGR5PSIxZW0iIHhtbDpzcGFjZT0icHJlc2VydmUiPkFQSSBHYXRld2F5PC90c3Bhbj48L3RleHQ+PC9nPjwvZz48ZyB0cmFuc2Zvcm09InRyYW5zbGF0ZSg0ODguNTQ2ODc1LCAyNC43OTY4NzUpIiBpZD0iZmxvd2NoYXJ0LXVzZXJzLTY3IiBjbGFzcz0ibm9kZSBkZWZhdWx0IGRlZmF1bHQiPjxyZWN0IGhlaWdodD0iMzMuNTkzNzUiIHdpZHRoPSI2MS42Nzk2ODc1IiB5PSItMTYuNzk2ODc1IiB4PSItMzAuODM5ODQzNzUiIHJ5PSIxNi43OTY4NzUiIHJ4PSIxNi43OTY4NzUiIHN0eWxlPSIiPjwvcmVjdD48ZyB0cmFuc2Zvcm09InRyYW5zbGF0ZSgtMTkuMTQwNjI1LCAtOS4yOTY4NzUpIiBzdHlsZT0iIiBjbGFzcz0ibGFiZWwiPjx0ZXh0IHN0eWxlPSIiPjx0c3BhbiBjbGFzcz0icm93IiB4PSIwIiBkeT0iMWVtIiB4bWw6c3BhY2U9InByZXNlcnZlIj5Vc2VyczwvdHNwYW4+PC90ZXh0PjwvZz48L2c+PGEgdHJhbnNmb3JtPSJ0cmFuc2xhdGUoNDg4LjU0Njg3NSwgMTI2Ljk4NDM3NSkiIHhsaW5rOmhyZWY9Imh0dHBzOi8vZ2l0aHViLmNvbS9wb3N0cm9hZC1lbmVyZ3kvZGVzaWduL2Jsb2IvbWFpbi9kb2NzL3VzZXJzLm1kIj48ZyBpZD0iZmxvd2NoYXJ0LXVzZXJfYXBwLTY4IiBjbGFzcz0ibm9kZSBkZWZhdWx0IGFjdGl2ZSBjbGlja2FibGUiPjxyZWN0IGhlaWdodD0iMzMuNTkzNzUiIHdpZHRoPSI3OC44OTA2MjUiIHk9Ii0xNi43OTY4NzUiIHg9Ii0zOS40NDUzMTI1IiByeT0iMCIgcng9IjAiIHN0eWxlPSIiIGNsYXNzPSJiYXNpYyBsYWJlbC1jb250YWluZXIiPjwvcmVjdD48ZyB0cmFuc2Zvcm09InRyYW5zbGF0ZSgtMzEuOTQ1MzEyNSwgLTkuMjk2ODc1KSIgc3R5bGU9IiIgY2xhc3M9ImxhYmVsIj48dGV4dCBzdHlsZT0iIj48dHNwYW4gY2xhc3M9InJvdyIgeD0iMCIgZHk9IjFlbSIgeG1sOnNwYWNlPSJwcmVzZXJ2ZSI+VXNlciBBcHA8L3RzcGFuPjwvdGV4dD48L2c+PC9nPjwvYT48ZyB0cmFuc2Zvcm09InRyYW5zbGF0ZSg2MzcuNzUsIDI0Ljc5Njg3NSkiIGlkPSJmbG93Y2hhcnQtY29udHJvbGxlcnMtNzAiIGNsYXNzPSJub2RlIGRlZmF1bHQgZGVmYXVsdCI+PHJlY3QgaGVpZ2h0PSIzMy41OTM3NSIgd2lkdGg9IjEwMi4zMDQ2ODc1IiB5PSItMTYuNzk2ODc1IiB4PSItNTEuMTUyMzQzNzUiIHJ5PSIxNi43OTY4NzUiIHJ4PSIxNi43OTY4NzUiIHN0eWxlPSIiPjwvcmVjdD48ZyB0cmFuc2Zvcm09InRyYW5zbGF0ZSgtMzkuNDUzMTI1LCAtOS4yOTY4NzUpIiBzdHlsZT0iIiBjbGFzcz0ibGFiZWwiPjx0ZXh0IHN0eWxlPSIiPjx0c3BhbiBjbGFzcz0icm93IiB4PSIwIiBkeT0iMWVtIiB4bWw6c3BhY2U9InByZXNlcnZlIj5Db250cm9sbGVyczwvdHNwYW4+PC90ZXh0PjwvZz48L2c+PGEgdHJhbnNmb3JtPSJ0cmFuc2xhdGUoNjM3Ljc1LCAxMjYuOTg0Mzc1KSIgeGxpbms6aHJlZj0iaHR0cHM6Ly9naXRodWIuY29tL3Bvc3Ryb2FkLWVuZXJneS9kZXNpZ24vYmxvYi9tYWluL2RvY3MvY29udHJvbGxlcnMubWQiPjxnIGlkPSJmbG93Y2hhcnQtY29udHJvbGxlcl9hcHAtNzEiIGNsYXNzPSJub2RlIGRlZmF1bHQgYWN0aXZlIGNsaWNrYWJsZSI+PHJlY3QgaGVpZ2h0PSIzMy41OTM3NSIgd2lkdGg9IjExOS41MTU2MjUiIHk9Ii0xNi43OTY4NzUiIHg9Ii01OS43NTc4MTI1IiByeT0iMCIgcng9IjAiIHN0eWxlPSIiIGNsYXNzPSJiYXNpYyBsYWJlbC1jb250YWluZXIiPjwvcmVjdD48ZyB0cmFuc2Zvcm09InRyYW5zbGF0ZSgtNTIuMjU3ODEyNSwgLTkuMjk2ODc1KSIgc3R5bGU9IiIgY2xhc3M9ImxhYmVsIj48dGV4dCBzdHlsZT0iIj48dHNwYW4gY2xhc3M9InJvdyIgeD0iMCIgZHk9IjFlbSIgeG1sOnNwYWNlPSJwcmVzZXJ2ZSI+Q29udHJvbGxlciBBcHA8L3RzcGFuPjwvdGV4dD48L2c+PC9nPjwvYT48ZyB0cmFuc2Zvcm09InRyYW5zbGF0ZSg3OTMuMjUsIDI0Ljc5Njg3NSkiIGlkPSJmbG93Y2hhcnQtYmlsbGluZy03MyIgY2xhc3M9Im5vZGUgZGVmYXVsdCBkZWZhdWx0Ij48cmVjdCBoZWlnaHQ9IjMzLjU5Mzc1IiB3aWR0aD0iMTA0LjQxNDA2MjUiIHk9Ii0xNi43OTY4NzUiIHg9Ii01Mi4yMDcwMzEyNSIgcnk9IjE2Ljc5Njg3NSIgcng9IjE2Ljc5Njg3NSIgc3R5bGU9IiI+PC9yZWN0PjxnIHRyYW5zZm9ybT0idHJhbnNsYXRlKC00MC41MDc4MTI1LCAtOS4yOTY4NzUpIiBzdHlsZT0iIiBjbGFzcz0ibGFiZWwiPjx0ZXh0IHN0eWxlPSIiPjx0c3BhbiBjbGFzcz0icm93IiB4PSIwIiBkeT0iMWVtIiB4bWw6c3BhY2U9InByZXNlcnZlIj5CaWxsaW5nIFVzZXI8L3RzcGFuPjwvdGV4dD48L2c+PC9nPjxhIHRyYW5zZm9ybT0idHJhbnNsYXRlKDc5My4yNSwgMTI2Ljk4NDM3NSkiIHhsaW5rOmhyZWY9Imh0dHBzOi8vZ2l0aHViLmNvbS9wb3N0cm9hZC1lbmVyZ3kvZGVzaWduL2Jsb2IvbWFpbi9kb2NzL2JpbGxpbmcubWQiPjxnIGlkPSJmbG93Y2hhcnQtYmlsbGluZ19hcHAtNzQiIGNsYXNzPSJub2RlIGRlZmF1bHQgYWN0aXZlIGNsaWNrYWJsZSI+PHJlY3QgaGVpZ2h0PSIzMy41OTM3NSIgd2lkdGg9IjkxLjQ4NDM3NSIgeT0iLTE2Ljc5Njg3NSIgeD0iLTQ1Ljc0MjE4NzUiIHJ5PSIwIiByeD0iMCIgc3R5bGU9IiIgY2xhc3M9ImJhc2ljIGxhYmVsLWNvbnRhaW5lciI+PC9yZWN0PjxnIHRyYW5zZm9ybT0idHJhbnNsYXRlKC0zOC4yNDIxODc1LCAtOS4yOTY4NzUpIiBzdHlsZT0iIiBjbGFzcz0ibGFiZWwiPjx0ZXh0IHN0eWxlPSIiPjx0c3BhbiBjbGFzcz0icm93IiB4PSIwIiBkeT0iMWVtIiB4bWw6c3BhY2U9InByZXNlcnZlIj5CaWxsaW5nIEFwcDwvdHNwYW4+PC90ZXh0PjwvZz48L2c+PC9hPjxnIHRyYW5zZm9ybT0idHJhbnNsYXRlKDk0NC42MzI4MTI1LCAyNC43OTY4NzUpIiBpZD0iZmxvd2NoYXJ0LW9wZXJhdG9ycy03NiIgY2xhc3M9Im5vZGUgZGVmYXVsdCBkZWZhdWx0Ij48cmVjdCBoZWlnaHQ9IjMzLjU5Mzc1IiB3aWR0aD0iOTQuMDcwMzEyNSIgeT0iLTE2Ljc5Njg3NSIgeD0iLTQ3LjAzNTE1NjI1IiByeT0iMTYuNzk2ODc1IiByeD0iMTYuNzk2ODc1IiBzdHlsZT0iIj48L3JlY3Q+PGcgdHJhbnNmb3JtPSJ0cmFuc2xhdGUoLTM1LjMzNTkzNzUsIC05LjI5Njg3NSkiIHN0eWxlPSIiIGNsYXNzPSJsYWJlbCI+PHRleHQgc3R5bGU9IiI+PHRzcGFuIGNsYXNzPSJyb3ciIHg9IjAiIGR5PSIxZW0iIHhtbDpzcGFjZT0icHJlc2VydmUiPk9wZXJhdG9yczwvdHNwYW4+PC90ZXh0PjwvZz48L2c+PGEgdHJhbnNmb3JtPSJ0cmFuc2xhdGUoOTQ0LjYzMjgxMjUsIDEyNi45ODQzNzUpIiB4bGluazpocmVmPSJodHRwczovL2dpdGh1Yi5jb20vcG9zdHJvYWQtZW5lcmd5L2Rlc2lnbi9ibG9iL21haW4vZG9jcy9vZXByYXRvcnMubWQiPjxnIGlkPSJmbG93Y2hhcnQtb3BlcmF0b3JfYXBwLTc3IiBjbGFzcz0ibm9kZSBkZWZhdWx0IGFjdGl2ZSBjbGlja2FibGUiPjxyZWN0IGhlaWdodD0iMzMuNTkzNzUiIHdpZHRoPSIxMTEuMjgxMjUiIHk9Ii0xNi43OTY4NzUiIHg9Ii01NS42NDA2MjUiIHJ5PSIwIiByeD0iMCIgc3R5bGU9IiIgY2xhc3M9ImJhc2ljIGxhYmVsLWNvbnRhaW5lciI+PC9yZWN0PjxnIHRyYW5zZm9ybT0idHJhbnNsYXRlKC00OC4xNDA2MjUsIC05LjI5Njg3NSkiIHN0eWxlPSIiIGNsYXNzPSJsYWJlbCI+PHRleHQgc3R5bGU9IiI+PHRzcGFuIGNsYXNzPSJyb3ciIHg9IjAiIGR5PSIxZW0iIHhtbDpzcGFjZT0icHJlc2VydmUiPk9wZXJhdG9yIEFwcDwvdHNwYW4+PC90ZXh0PjwvZz48L2c+PC9hPjxnIHRyYW5zZm9ybT0idHJhbnNsYXRlKDExMTQuODY3MTg3NSwgMjQuNzk2ODc1KSIgaWQ9ImZsb3djaGFydC1leHBlcmltZW50LTc5IiBjbGFzcz0ibm9kZSBkZWZhdWx0IGRlZmF1bHQiPjxyZWN0IGhlaWdodD0iMzMuNTkzNzUiIHdpZHRoPSIxMjYuOTI5Njg3NSIgeT0iLTE2Ljc5Njg3NSIgeD0iLTYzLjQ2NDg0Mzc1IiByeT0iMTYuNzk2ODc1IiByeD0iMTYuNzk2ODc1IiBzdHlsZT0iIj48L3JlY3Q+PGcgdHJhbnNmb3JtPSJ0cmFuc2xhdGUoLTUxLjc2NTYyNSwgLTkuMjk2ODc1KSIgc3R5bGU9IiIgY2xhc3M9ImxhYmVsIj48dGV4dCBzdHlsZT0iIj48dHNwYW4gY2xhc3M9InJvdyIgeD0iMCIgZHk9IjFlbSIgeG1sOnNwYWNlPSJwcmVzZXJ2ZSI+RXhwZXJpbWVudGVyczwvdHNwYW4+PC90ZXh0PjwvZz48L2c+PGEgdHJhbnNmb3JtPSJ0cmFuc2xhdGUoMTExNC44NjcxODc1LCAxMjYuOTg0Mzc1KSIgeGxpbms6aHJlZj0iaHR0cHM6Ly9naXRodWIuY29tL3Bvc3Ryb2FkLWVuZXJneS9kZXNpZ24vYmxvYi9tYWluL2RvY3MvZXhwZXJpbWVudGVycy5tZCI+PGcgaWQ9ImZsb3djaGFydC1leHBlcmltZW50X2FwcC04MCIgY2xhc3M9Im5vZGUgZGVmYXVsdCBhY3RpdmUgY2xpY2thYmxlIj48cmVjdCBoZWlnaHQ9IjMzLjU5Mzc1IiB3aWR0aD0iMTI5LjE4NzUiIHk9Ii0xNi43OTY4NzUiIHg9Ii02NC41OTM3NSIgcnk9IjAiIHJ4PSIwIiBzdHlsZT0iIiBjbGFzcz0iYmFzaWMgbGFiZWwtY29udGFpbmVyIj48L3JlY3Q+PGcgdHJhbnNmb3JtPSJ0cmFuc2xhdGUoLTU3LjA5Mzc1LCAtOS4yOTY4NzUpIiBzdHlsZT0iIiBjbGFzcz0ibGFiZWwiPjx0ZXh0IHN0eWxlPSIiPjx0c3BhbiBjbGFzcz0icm93IiB4PSIwIiBkeT0iMWVtIiB4bWw6c3BhY2U9InByZXNlcnZlIj5FeHBlcmltZW50IEFwcDwvdHNwYW4+PC90ZXh0PjwvZz48L2c+PC9hPjxnIHRyYW5zZm9ybT0idHJhbnNsYXRlKDQyLjcxMDkzNzUsIDMxMi43NjU2MjUpIiBpZD0iZmxvd2NoYXJ0LWF1dGgtODMiIGNsYXNzPSJub2RlIGRlZmF1bHQgZGVmYXVsdCI+PHJlY3QgaGVpZ2h0PSIzMy41OTM3NSIgd2lkdGg9IjY5LjQyMTg3NSIgeT0iLTE2Ljc5Njg3NSIgeD0iLTM0LjcxMDkzNzUiIHJ5PSIwIiByeD0iMCIgc3R5bGU9IiIgY2xhc3M9ImJhc2ljIGxhYmVsLWNvbnRhaW5lciI+PC9yZWN0PjxnIHRyYW5zZm9ybT0idHJhbnNsYXRlKC0yNy4yMTA5Mzc1LCAtOS4yOTY4NzUpIiBzdHlsZT0iIiBjbGFzcz0ibGFiZWwiPjx0ZXh0IHN0eWxlPSIiPjx0c3BhbiBjbGFzcz0icm93IiB4PSIwIiBkeT0iMWVtIiB4bWw6c3BhY2U9InByZXNlcnZlIj5Db2duaXRvPC90c3Bhbj48L3RleHQ+PC9nPjwvZz48ZyB0cmFuc2Zvcm09InRyYW5zbGF0ZSgxNDIuOTY4NzUsIDMxMi43NjU2MjUpIiBpZD0iZmxvd2NoYXJ0LXMzLTg1IiBjbGFzcz0ibm9kZSBkZWZhdWx0IGRlZmF1bHQiPjxyZWN0IGhlaWdodD0iMzMuNTkzNzUiIHdpZHRoPSIzMS4wOTM3NSIgeT0iLTE2Ljc5Njg3NSIgeD0iLTE1LjU0Njg3NSIgcnk9IjAiIHJ4PSIwIiBzdHlsZT0iIiBjbGFzcz0iYmFzaWMgbGFiZWwtY29udGFpbmVyIj48L3JlY3Q+PGcgdHJhbnNmb3JtPSJ0cmFuc2xhdGUoLTguMDQ2ODc1LCAtOS4yOTY4NzUpIiBzdHlsZT0iIiBjbGFzcz0ibGFiZWwiPjx0ZXh0IHN0eWxlPSIiPjx0c3BhbiBjbGFzcz0icm93IiB4PSIwIiBkeT0iMWVtIiB4bWw6c3BhY2U9InByZXNlcnZlIj5TMzwvdHNwYW4+PC90ZXh0PjwvZz48L2c+PGEgdHJhbnNmb3JtPSJ0cmFuc2xhdGUoMTQyLjk2ODc1LCA0MTYuMzEyNSkiIHhsaW5rOmhyZWY9Imh0dHBzOi8vZ2l0aHViLmNvbS9wb3N0cm9hZC1lbmVyZ3kvZGVzaWduL2Jsb2IvbWFpbi9kb2NzL3dlYnNpdGVzLm1kIj48ZyBpZD0iZmxvd2NoYXJ0LXdlYnNpdGVzLTg3IiBjbGFzcz0ibm9kZSBkZWZhdWx0IGFjdGl2ZSBjbGlja2FibGUiPjxyZWN0IGhlaWdodD0iMzMuNTkzNzUiIHdpZHRoPSI4Ny4yNTc4MTI1IiB5PSItMTYuNzk2ODc1IiB4PSItNDMuNjI4OTA2MjUiIHJ5PSIxNi43OTY4NzUiIHJ4PSIxNi43OTY4NzUiIHN0eWxlPSIiPjwvcmVjdD48ZyB0cmFuc2Zvcm09InRyYW5zbGF0ZSgtMzEuOTI5Njg3NSwgLTkuMjk2ODc1KSIgc3R5bGU9IiIgY2xhc3M9ImxhYmVsIj48dGV4dCBzdHlsZT0iIj48dHNwYW4gY2xhc3M9InJvdyIgeD0iMCIgZHk9IjFlbSIgeG1sOnNwYWNlPSJwcmVzZXJ2ZSI+V2Vic2l0ZXM8L3RzcGFuPjwvdGV4dD48L2c+PC9nPjwvYT48ZyB0cmFuc2Zvcm09InRyYW5zbGF0ZSg1MDEuNDcyNjU2MjUsIDMxMi43NjU2MjUpIiBpZD0iZmxvd2NoYXJ0LWVjMi04OSIgY2xhc3M9Im5vZGUgZGVmYXVsdCBkZWZhdWx0Ij48cmVjdCBoZWlnaHQ9IjMzLjU5Mzc1IiB3aWR0aD0iNDEuNTMxMjUiIHk9Ii0xNi43OTY4NzUiIHg9Ii0yMC43NjU2MjUiIHJ5PSIwIiByeD0iMCIgc3R5bGU9IiIgY2xhc3M9ImJhc2ljIGxhYmVsLWNvbnRhaW5lciI+PC9yZWN0PjxnIHRyYW5zZm9ybT0idHJhbnNsYXRlKC0xMy4yNjU2MjUsIC05LjI5Njg3NSkiIHN0eWxlPSIiIGNsYXNzPSJsYWJlbCI+PHRleHQgc3R5bGU9IiI+PHRzcGFuIGNsYXNzPSJyb3ciIHg9IjAiIGR5PSIxZW0iIHhtbDpzcGFjZT0icHJlc2VydmUiPkVDMjwvdHNwYW4+PC90ZXh0PjwvZz48L2c+PGcgdHJhbnNmb3JtPSJ0cmFuc2xhdGUoMjU2Ljk2NDg0Mzc1LCA0MTYuMzEyNSkiIGlkPSJmbG93Y2hhcnQtZWxiLTkxIiBjbGFzcz0ibm9kZSBkZWZhdWx0IGRlZmF1bHQiPjxjaXJjbGUgaGVpZ2h0PSIzMy41OTM3NSIgd2lkdGg9IjQwLjczNDM3NSIgcj0iMjAuMzY3MTg3NSIgcnk9IjAiIHJ4PSIwIiBzdHlsZT0iIj48L2NpcmNsZT48ZyB0cmFuc2Zvcm09InRyYW5zbGF0ZSgtMTIuODY3MTg3NSwgLTkuMjk2ODc1KSIgc3R5bGU9IiIgY2xhc3M9ImxhYmVsIj48dGV4dCBzdHlsZT0iIj48dHNwYW4gY2xhc3M9InJvdyIgeD0iMCIgZHk9IjFlbSIgeG1sOnNwYWNlPSJwcmVzZXJ2ZSI+RUxCPC90c3Bhbj48L3RleHQ+PC9nPjwvZz48ZyB0cmFuc2Zvcm09InRyYW5zbGF0ZSgzNTEuNjk1MzEyNSwgNDE2LjMxMjUpIiBpZD0iZmxvd2NoYXJ0LWVicy05MyIgY2xhc3M9Im5vZGUgZGVmYXVsdCBkZWZhdWx0Ij48cmVjdCBoZWlnaHQ9IjMzLjU5Mzc1IiB3aWR0aD0iNDguNzI2NTYyNSIgeT0iLTE2Ljc5Njg3NSIgeD0iLTI0LjM2MzI4MTI1IiByeT0iMTYuNzk2ODc1IiByeD0iMTYuNzk2ODc1IiBzdHlsZT0iIj48L3JlY3Q+PGcgdHJhbnNmb3JtPSJ0cmFuc2xhdGUoLTEyLjY2NDA2MjUsIC05LjI5Njg3NSkiIHN0eWxlPSIiIGNsYXNzPSJsYWJlbCI+PHRleHQgc3R5bGU9IiI+PHRzcGFuIGNsYXNzPSJyb3ciIHg9IjAiIGR5PSIxZW0iIHhtbDpzcGFjZT0icHJlc2VydmUiPkVCUzwvdHNwYW4+PC90ZXh0PjwvZz48L2c+PGcgdHJhbnNmb3JtPSJ0cmFuc2xhdGUoNDQ3LjQxNzk2ODc1LCA0MTYuMzEyNSkiIGlkPSJmbG93Y2hhcnQtZG5zLTk1IiBjbGFzcz0ibm9kZSBkZWZhdWx0IGRlZmF1bHQiPjxjaXJjbGUgaGVpZ2h0PSIzMy41OTM3NSIgd2lkdGg9IjQyLjcxODc1IiByPSIyMS4zNTkzNzUiIHJ5PSIwIiByeD0iMCIgc3R5bGU9IiI+PC9jaXJjbGU+PGcgdHJhbnNmb3JtPSJ0cmFuc2xhdGUoLTEzLjg1OTM3NSwgLTkuMjk2ODc1KSIgc3R5bGU9IiIgY2xhc3M9ImxhYmVsIj48dGV4dCBzdHlsZT0iIj48dHNwYW4gY2xhc3M9InJvdyIgeD0iMCIgZHk9IjFlbSIgeG1sOnNwYWNlPSJwcmVzZXJ2ZSI+RE5TPC90c3Bhbj48L3RleHQ+PC9nPjwvZz48ZyB0cmFuc2Zvcm09InRyYW5zbGF0ZSg1NTUuNTI3MzQzNzUsIDQxNi4zMTI1KSIgaWQ9ImZsb3djaGFydC1yb3V0ZTUzLTk3IiBjbGFzcz0ibm9kZSBkZWZhdWx0IGRlZmF1bHQiPjxjaXJjbGUgaGVpZ2h0PSIzMy41OTM3NSIgd2lkdGg9IjczLjUiIHI9IjM2Ljc1IiByeT0iMCIgcng9IjAiIHN0eWxlPSIiPjwvY2lyY2xlPjxnIHRyYW5zZm9ybT0idHJhbnNsYXRlKC0yOS4yNSwgLTkuMjk2ODc1KSIgc3R5bGU9IiIgY2xhc3M9ImxhYmVsIj48dGV4dCBzdHlsZT0iIj48dHNwYW4gY2xhc3M9InJvdyIgeD0iMCIgZHk9IjFlbSIgeG1sOnNwYWNlPSJwcmVzZXJ2ZSI+Um91dGU1MzwvdHNwYW4+PC90ZXh0PjwvZz48L2c+PGcgdHJhbnNmb3JtPSJ0cmFuc2xhdGUoNjYzLjcyMjY1NjI1LCA0MTYuMzEyNSkiIGlkPSJmbG93Y2hhcnQtdnBjLTk5IiBjbGFzcz0ibm9kZSBkZWZhdWx0IGRlZmF1bHQiPjxjaXJjbGUgaGVpZ2h0PSIzMy41OTM3NSIgd2lkdGg9IjQyLjg5MDYyNSIgcj0iMjEuNDQ1MzEyNSIgcnk9IjAiIHJ4PSIwIiBzdHlsZT0iIj48L2NpcmNsZT48ZyB0cmFuc2Zvcm09InRyYW5zbGF0ZSgtMTMuOTQ1MzEyNSwgLTkuMjk2ODc1KSIgc3R5bGU9IiIgY2xhc3M9ImxhYmVsIj48dGV4dCBzdHlsZT0iIj48dHNwYW4gY2xhc3M9InJvdyIgeD0iMCIgZHk9IjFlbSIgeG1sOnNwYWNlPSJwcmVzZXJ2ZSI+VlBDPC90c3Bhbj48L3RleHQ+PC9nPjwvZz48ZyB0cmFuc2Zvcm09InRyYW5zbGF0ZSg3NTEuOTI1NzgxMjUsIDQxNi4zMTI1KSIgaWQ9ImZsb3djaGFydC1zZy0xMDEiIGNsYXNzPSJub2RlIGRlZmF1bHQgZGVmYXVsdCI+PGNpcmNsZSBoZWlnaHQ9IjMzLjU5Mzc1IiB3aWR0aD0iMzMuNTE1NjI1IiByPSIxNi43NTc4MTI1IiByeT0iMCIgcng9IjAiIHN0eWxlPSIiPjwvY2lyY2xlPjxnIHRyYW5zZm9ybT0idHJhbnNsYXRlKC05LjI1NzgxMjUsIC05LjI5Njg3NSkiIHN0eWxlPSIiIGNsYXNzPSJsYWJlbCI+PHRleHQgc3R5bGU9IiI+PHRzcGFuIGNsYXNzPSJyb3ciIHg9IjAiIGR5PSIxZW0iIHhtbDpzcGFjZT0icHJlc2VydmUiPlNHPC90c3Bhbj48L3RleHQ+PC9nPjwvZz48ZyB0cmFuc2Zvcm09InRyYW5zbGF0ZSg5ODIuNjc5Njg3NSwgMzEyLjc2NTYyNSkiIGlkPSJmbG93Y2hhcnQtbGFtYmRhLTEwMyIgY2xhc3M9Im5vZGUgZGVmYXVsdCBkZWZhdWx0Ij48cmVjdCBoZWlnaHQ9IjMzLjU5Mzc1IiB3aWR0aD0iNzEuMDMxMjUiIHk9Ii0xNi43OTY4NzUiIHg9Ii0zNS41MTU2MjUiIHJ5PSIwIiByeD0iMCIgc3R5bGU9IiIgY2xhc3M9ImJhc2ljIGxhYmVsLWNvbnRhaW5lciI+PC9yZWN0PjxnIHRyYW5zZm9ybT0idHJhbnNsYXRlKC0yOC4wMTU2MjUsIC05LjI5Njg3NSkiIHN0eWxlPSIiIGNsYXNzPSJsYWJlbCI+PHRleHQgc3R5bGU9IiI+PHRzcGFuIGNsYXNzPSJyb3ciIHg9IjAiIGR5PSIxZW0iIHhtbDpzcGFjZT0icHJlc2VydmUiPkxhbWJkYTwvdHNwYW4+PC90ZXh0PjwvZz48L2c+PGcgdHJhbnNmb3JtPSJ0cmFuc2xhdGUoODM5LjI4NTE1NjI1LCA0MTYuMzEyNSkiIGlkPSJmbG93Y2hhcnQtc3FzLTEwNSIgY2xhc3M9Im5vZGUgZGVmYXVsdCBkZWZhdWx0Ij48Y2lyY2xlIGhlaWdodD0iMzMuNTkzNzUiIHdpZHRoPSI0MS4yMDMxMjUiIHI9IjIwLjYwMTU2MjUiIHJ5PSIwIiByeD0iMCIgc3R5bGU9IiI+PC9jaXJjbGU+PGcgdHJhbnNmb3JtPSJ0cmFuc2xhdGUoLTEzLjEwMTU2MjUsIC05LjI5Njg3NSkiIHN0eWxlPSIiIGNsYXNzPSJsYWJlbCI+PHRleHQgc3R5bGU9IiI+PHRzcGFuIGNsYXNzPSJyb3ciIHg9IjAiIGR5PSIxZW0iIHhtbDpzcGFjZT0icHJlc2VydmUiPlNRUzwvdHNwYW4+PC90ZXh0PjwvZz48L2c+PGcgdHJhbnNmb3JtPSJ0cmFuc2xhdGUoOTMwLjE5MTQwNjI1LCA0MTYuMzEyNSkiIGlkPSJmbG93Y2hhcnQtc25zLTEwNyIgY2xhc3M9Im5vZGUgZGVmYXVsdCBkZWZhdWx0Ij48Y2lyY2xlIGhlaWdodD0iMzMuNTkzNzUiIHdpZHRoPSI0MC42MDkzNzUiIHI9IjIwLjMwNDY4NzUiIHJ5PSIwIiByeD0iMCIgc3R5bGU9IiI+PC9jaXJjbGU+PGcgdHJhbnNmb3JtPSJ0cmFuc2xhdGUoLTEyLjgwNDY4NzUsIC05LjI5Njg3NSkiIHN0eWxlPSIiIGNsYXNzPSJsYWJlbCI+PHRleHQgc3R5bGU9IiI+PHRzcGFuIGNsYXNzPSJyb3ciIHg9IjAiIGR5PSIxZW0iIHhtbDpzcGFjZT0icHJlc2VydmUiPlNOUzwvdHNwYW4+PC90ZXh0PjwvZz48L2c+PGEgdHJhbnNmb3JtPSJ0cmFuc2xhdGUoMTAzNS4xNjc5Njg3NSwgNDE2LjMxMjUpIiB4bGluazpocmVmPSJodHRwczovL2dpdGh1Yi5jb20vcG9zdHJvYWQtZW5lcmd5L2Rlc2lnbi9ibG9iL21haW4vZG9jcy9hdWN0aW9uLm1kIj48ZyBpZD0iZmxvd2NoYXJ0LWF1Y3Rpb24tMTA5IiBjbGFzcz0ibm9kZSBkZWZhdWx0IGFjdGl2ZSBjbGlja2FibGUiPjxyZWN0IGhlaWdodD0iMzMuNTkzNzUiIHdpZHRoPSI2OS4zNDM3NSIgeT0iLTE2Ljc5Njg3NSIgeD0iLTM0LjY3MTg3NSIgcnk9IjAiIHJ4PSIwIiBzdHlsZT0iIiBjbGFzcz0iYmFzaWMgbGFiZWwtY29udGFpbmVyIj48L3JlY3Q+PGcgdHJhbnNmb3JtPSJ0cmFuc2xhdGUoLTI3LjE3MTg3NSwgLTkuMjk2ODc1KSIgc3R5bGU9IiIgY2xhc3M9ImxhYmVsIj48dGV4dCBzdHlsZT0iIj48dHNwYW4gY2xhc3M9InJvdyIgeD0iMCIgZHk9IjFlbSIgeG1sOnNwYWNlPSJwcmVzZXJ2ZSI+QXVjdGlvbjwvdHNwYW4+PC90ZXh0PjwvZz48L2c+PC9hPjxhIHRyYW5zZm9ybT0idHJhbnNsYXRlKDExNjcuMTc5Njg3NSwgNTUzLjE0MjkwMjM3NDI2NzYpIiB4bGluazpocmVmPSJodHRwczovL2dpdGh1Yi5jb20vcG9zdHJvYWQtZW5lcmd5L2Rlc2lnbi9ibG9iL21haW4vZG9jcy9kYXRhYmFzZS5tZCI+PGcgaWQ9ImZsb3djaGFydC1kYXRhYmFzZS0xMTEiIGNsYXNzPSJub2RlIGRlZmF1bHQgYWN0aXZlIGNsaWNrYWJsZSI+PHBhdGggdHJhbnNmb3JtPSJ0cmFuc2xhdGUoLTQwLjI1LC0zMS40ODY2NTYwMjE4OTc4MSkiIGQ9Ik0gMCw5Ljc5MzE4NzM0NzkzMTg3MyBhIDQwLjI1LDkuNzkzMTg3MzQ3OTMxODczIDAsMCwwIDgwLjUgMCBhIDQwLjI1LDkuNzkzMTg3MzQ3OTMxODczIDAsMCwwIC04MC41IDAgbCAwLDQzLjM4NjkzNzM0NzkzMTg4IGEgNDAuMjUsOS43OTMxODczNDc5MzE4NzMgMCwwLDAgODAuNSAwIGwgMCwtNDMuMzg2OTM3MzQ3OTMxODgiIHN0eWxlPSIiPjwvcGF0aD48ZyB0cmFuc2Zvcm09InRyYW5zbGF0ZSgtMzIuNzUsIC05LjI5Njg3NSkiIHN0eWxlPSIiIGNsYXNzPSJsYWJlbCI+PHRleHQgc3R5bGU9IiI+PHRzcGFuIGNsYXNzPSJyb3ciIHg9IjAiIGR5PSIxZW0iIHhtbDpzcGFjZT0icHJlc2VydmUiPkRhdGFiYXNlPC90c3Bhbj48L3RleHQ+PC9nPjwvZz48L2E+PGEgdHJhbnNmb3JtPSJ0cmFuc2xhdGUoMTIyOS42NDA2MjUsIDQxNi4zMTI1KSIgeGxpbms6aHJlZj0iaHR0cHM6Ly9naXRodWIuY29tL3Bvc3Ryb2FkLWVuZXJneS9kZXNpZ24vYmxvYi9tYWluL2RvY3MvZGF0YWJhc2UubWQiPjxnIGlkPSJmbG93Y2hhcnQtZGJfYXBpLTExMyIgY2xhc3M9Im5vZGUgZGVmYXVsdCBhY3RpdmUgY2xpY2thYmxlIj48cmVjdCBoZWlnaHQ9IjMzLjU5Mzc1IiB3aWR0aD0iODAuNSIgeT0iLTE2Ljc5Njg3NSIgeD0iLTQwLjI1IiByeT0iMCIgcng9IjAiIHN0eWxlPSIiIGNsYXNzPSJiYXNpYyBsYWJlbC1jb250YWluZXIiPjwvcmVjdD48ZyB0cmFuc2Zvcm09InRyYW5zbGF0ZSgtMzIuNzUsIC05LjI5Njg3NSkiIHN0eWxlPSIiIGNsYXNzPSJsYWJlbCI+PHRleHQgc3R5bGU9IiI+PHRzcGFuIGNsYXNzPSJyb3ciIHg9IjAiIGR5PSIxZW0iIHhtbDpzcGFjZT0icHJlc2VydmUiPkRhdGFiYXNlPC90c3Bhbj48L3RleHQ+PC9nPjwvZz48L2E+PGcgdHJhbnNmb3JtPSJ0cmFuc2xhdGUoMTEwMy4wNTQ2ODc1LCAzMTIuNzY1NjI1KSIgaWQ9ImZsb3djaGFydC1hbXBsaWZ5LTExNyIgY2xhc3M9Im5vZGUgZGVmYXVsdCBkZWZhdWx0Ij48cmVjdCBoZWlnaHQ9IjMzLjU5Mzc1IiB3aWR0aD0iNjkuNzE4NzUiIHk9Ii0xNi43OTY4NzUiIHg9Ii0zNC44NTkzNzUiIHJ5PSIwIiByeD0iMCIgc3R5bGU9IiIgY2xhc3M9ImJhc2ljIGxhYmVsLWNvbnRhaW5lciI+PC9yZWN0PjxnIHRyYW5zZm9ybT0idHJhbnNsYXRlKC0yNy4zNTkzNzUsIC05LjI5Njg3NSkiIHN0eWxlPSIiIGNsYXNzPSJsYWJlbCI+PHRleHQgc3R5bGU9IiI+PHRzcGFuIGNsYXNzPSJyb3ciIHg9IjAiIGR5PSIxZW0iIHhtbDpzcGFjZT0icHJlc2VydmUiPkFtcGxpZnk8L3RzcGFuPjwvdGV4dD48L2c+PC9nPjxnIHRyYW5zZm9ybT0idHJhbnNsYXRlKDEyNDYuNzAzMTI1LCAzMTIuNzY1NjI1KSIgaWQ9ImZsb3djaGFydC1vdGhlci0xMTkiIGNsYXNzPSJub2RlIGRlZmF1bHQgZGVmYXVsdCI+PHJlY3QgaGVpZ2h0PSIzMy41OTM3NSIgd2lkdGg9IjExNy41NzgxMjUiIHk9Ii0xNi43OTY4NzUiIHg9Ii01OC43ODkwNjI1IiByeT0iMCIgcng9IjAiIHN0eWxlPSIiIGNsYXNzPSJiYXNpYyBsYWJlbC1jb250YWluZXIiPjwvcmVjdD48ZyB0cmFuc2Zvcm09InRyYW5zbGF0ZSgtNTEuMjg5MDYyNSwgLTkuMjk2ODc1KSIgc3R5bGU9IiIgY2xhc3M9ImxhYmVsIj48dGV4dCBzdHlsZT0iIj48dHNwYW4gY2xhc3M9InJvdyIgeD0iMCIgZHk9IjFlbSIgeG1sOnNwYWNlPSJwcmVzZXJ2ZSI+T3RoZXIgc2VydmljZXM8L3RzcGFuPjwvdGV4dD48L2c+PC9nPjxhIHRyYW5zZm9ybT0idHJhbnNsYXRlKDExMDEuNTg5ODQzNzUsIDY1MS40MjY0Mjk3NDg1MzUyKSIgeGxpbms6aHJlZj0iaHR0cHM6Ly9naXRodWIuY29tL3Bvc3Ryb2FkLWVuZXJneS9kZXNpZ24vYmxvYi9tYWluL2RvY3Mvc2ltdWxhdGlvbi5tZCI+PGcgaWQ9ImZsb3djaGFydC1zaW11bGF0aW9uLTEyMSIgY2xhc3M9Im5vZGUgZGVmYXVsdCBhY3RpdmUgY2xpY2thYmxlIj48cmVjdCBoZWlnaHQ9IjMzLjU5Mzc1IiB3aWR0aD0iOTAuNjQwNjI1IiB5PSItMTYuNzk2ODc1IiB4PSItNDUuMzIwMzEyNSIgcnk9IjAiIHJ4PSIwIiBzdHlsZT0iIiBjbGFzcz0iYmFzaWMgbGFiZWwtY29udGFpbmVyIj48L3JlY3Q+PGcgdHJhbnNmb3JtPSJ0cmFuc2xhdGUoLTM3LjgyMDMxMjUsIC05LjI5Njg3NSkiIHN0eWxlPSIiIGNsYXNzPSJsYWJlbCI+PHRleHQgc3R5bGU9IiI+PHRzcGFuIGNsYXNzPSJyb3ciIHg9IjAiIGR5PSIxZW0iIHhtbDpzcGFjZT0icHJlc2VydmUiPlNpbXVsYXRpb248L3RzcGFuPjwvdGV4dD48L2c+PC9nPjwvYT48YSB0cmFuc2Zvcm09InRyYW5zbGF0ZSgxMTY3LjE3OTY4NzUsIDc0Ny45NTIxNjk0MTgzMzUpIiB4bGluazpocmVmPSJodHRwczovL2dpdGh1Yi5jb20vcG9zdHJvYWQtZW5lcmd5L2Rlc2lnbi9ibG9iL21haW4vZG9jcy9yZXN1bHRzLm1kIj48ZyBpZD0iZmxvd2NoYXJ0LXJlc3VsdHMtMTIyIiBjbGFzcz0ibm9kZSBkZWZhdWx0IGFjdGl2ZSBjbGlja2FibGUiPjxwYXRoIHRyYW5zZm9ybT0idHJhbnNsYXRlKC0zMi44OTg0Mzc1LC0yOS43Mjg4NjI1NTIyMDcwMjYpIiBkPSJNIDAsOC42MjEzMjUwMzQ4MDQ2ODQgYSAzMi44OTg0Mzc1LDguNjIxMzI1MDM0ODA0Njg0IDAsMCwwIDY1Ljc5Njg3NSAwIGEgMzIuODk4NDM3NSw4LjYyMTMyNTAzNDgwNDY4NCAwLDAsMCAtNjUuNzk2ODc1IDAgbCAwLDQyLjIxNTA3NTAzNDgwNDY4NCBhIDMyLjg5ODQzNzUsOC42MjEzMjUwMzQ4MDQ2ODQgMCwwLDAgNjUuNzk2ODc1IDAgbCAwLC00Mi4yMTUwNzUwMzQ4MDQ2ODQiIHN0eWxlPSIiPjwvcGF0aD48ZyB0cmFuc2Zvcm09InRyYW5zbGF0ZSgtMjUuMzk4NDM3NSwgLTkuMjk2ODc1KSIgc3R5bGU9IiIgY2xhc3M9ImxhYmVsIj48dGV4dCBzdHlsZT0iIj48dHNwYW4gY2xhc3M9InJvdyIgeD0iMCIgZHk9IjFlbSIgeG1sOnNwYWNlPSJwcmVzZXJ2ZSI+UmVzdWx0czwvdHNwYW4+PC90ZXh0PjwvZz48L2c+PC9hPjxhIHRyYW5zZm9ybT0idHJhbnNsYXRlKDEyMzIuNzY5NTMxMjUsIDY1MS40MjY0Mjk3NDg1MzUyKSIgeGxpbms6aHJlZj0iaHR0cHM6Ly9naXRodWIuY29tL3Bvc3Ryb2FkLWVuZXJneS9kZXNpZ24vYmxvYi9tYWluL2RvY3MvYW5hbHlzaXMubWQiPjxnIGlkPSJmbG93Y2hhcnQtYW5hbHlzaXMtMTI0IiBjbGFzcz0ibm9kZSBkZWZhdWx0IGFjdGl2ZSBjbGlja2FibGUiPjxyZWN0IGhlaWdodD0iMzMuNTkzNzUiIHdpZHRoPSI3MS43MTg3NSIgeT0iLTE2Ljc5Njg3NSIgeD0iLTM1Ljg1OTM3NSIgcnk9IjAiIHJ4PSIwIiBzdHlsZT0iIiBjbGFzcz0iYmFzaWMgbGFiZWwtY29udGFpbmVyIj48L3JlY3Q+PGcgdHJhbnNmb3JtPSJ0cmFuc2xhdGUoLTI4LjM1OTM3NSwgLTkuMjk2ODc1KSIgc3R5bGU9IiIgY2xhc3M9ImxhYmVsIj48dGV4dCBzdHlsZT0iIj48dHNwYW4gY2xhc3M9InJvdyIgeD0iMCIgZHk9IjFlbSIgeG1sOnNwYWNlPSJwcmVzZXJ2ZSI+QW5hbHlzaXM8L3RzcGFuPjwvdGV4dD48L2c+PC9nPjwvYT48L2c+PC9nPjwvZz48L3N2Zz4=;" vertex="1" parent="1">
            <mxGeometry x="30" y="90" width="1350" height="785.68" as="geometry" />
          </mxCell>
        </UserObject>
      </root>
    </mxGraphModel>
  </diagram>
</mxfile>
